<svg width="44" height="50" viewBox="0 0 44 50" fill="none" xmlns="http://www.w3.org/2000/svg">
    <path d="M22 0L43.6506 12.5V37.5L22 50L0.349365 37.5V12.5L22 0Z" fill="black" />
    <path
        d="M21.8174 13C14.7358 13 9 18.739 9 25.8174C9 31.4816 12.6722 36.2849 17.7639 37.9779C18.4047 38.0986 18.6397 37.7023 18.6397 37.3616C18.6397 37.0571 18.6291 36.2507 18.6237 35.1826C15.0583 35.9559 14.3064 33.4629 14.3064 33.4629C13.7232 31.9836 12.8805 31.5884 12.8805 31.5884C11.7194 30.7937 12.9702 30.8097 12.9702 30.8097C14.2573 30.8995 14.9334 32.1299 14.9334 32.1299C16.0763 34.0899 17.9337 33.5238 18.6664 33.1959C18.7818 32.3671 19.1118 31.802 19.4782 31.4816C16.6317 31.1611 13.6399 30.0589 13.6399 25.1477C13.6399 23.7484 14.1366 22.6056 14.959 21.7083C14.8148 21.3847 14.3822 20.0816 15.0712 18.316C15.0712 18.316 16.1446 17.9721 18.5959 19.6298C19.6213 19.3446 20.7108 19.2036 21.8003 19.1972C22.8898 19.2036 23.9792 19.3446 25.0046 19.6298C27.4399 17.9721 28.5134 18.316 28.5134 18.316C29.2023 20.0816 28.7697 21.3847 28.6416 21.7083C29.4587 22.6056 29.9553 23.7484 29.9553 25.1477C29.9553 30.0717 26.9593 31.1558 24.1074 31.4709C24.556 31.8554 24.9726 32.6416 24.9726 33.8421C24.9726 35.5575 24.9566 36.9354 24.9566 37.3519C24.9566 37.6884 25.1809 38.0889 25.8378 37.9608C30.9658 36.2796 34.6347 31.473 34.6347 25.8174C34.6347 18.739 28.8958 13 21.8174 13Z"
        fill="white" />
</svg>