<svg xmlns="http://www.w3.org/2000/svg" width="50" height="50" fill="none" viewBox="0 0 50 50"><path fill="#000" d="M25 0L46.6506 12.5V37.5L25 50L3.34937 37.5V12.5L25 0Z"/><path fill="#fff" d="M24.5 13C21.1042 13 20.6802 13.0156 19.3469 13.075C18.0156 13.1375 17.1094 13.3469 16.3125 13.6562C15.4906 13.975 14.7927 14.4031 14.0979 15.0979C13.4031 15.7927 12.974 16.4896 12.6562 17.3125C12.3469 18.1094 12.1365 19.0156 12.075 20.3469C12.0125 21.6802 12 22.1042 12 25.5C12 28.8958 12.0156 29.3198 12.075 30.6531C12.1375 31.9833 12.3469 32.8906 12.6562 33.6875C12.975 34.5083 13.4031 35.2073 14.0979 35.9021C14.7927 36.5958 15.4896 37.026 16.3125 37.3438C17.1104 37.6521 18.0167 37.8635 19.3469 37.925C20.6802 37.9875 21.1042 38 24.5 38C27.8958 38 28.3198 37.9844 29.6531 37.925C30.9833 37.8625 31.8906 37.6521 32.6875 37.3438C33.5083 37.025 34.2073 36.5958 34.9021 35.9021C35.5958 35.2073 36.026 34.5115 36.3438 33.6875C36.6521 32.8906 36.8635 31.9833 36.925 30.6531C36.9875 29.3198 37 28.8958 37 25.5C37 22.1042 36.9844 21.6802 36.925 20.3469C36.8625 19.0167 36.6521 18.1083 36.3438 17.3125C36.025 16.4906 35.5958 15.7927 34.9021 15.0979C34.2073 14.4031 33.5115 13.974 32.6875 13.6562C31.8906 13.3469 30.9833 13.1365 29.6531 13.075C28.3198 13.0125 27.8958 13 24.5 13ZM24.5 15.25C27.8365 15.25 28.2344 15.2667 29.5521 15.324C30.7708 15.3812 31.4323 15.5833 31.8719 15.7562C32.4573 15.9823 32.8719 16.2531 33.3115 16.6896C33.7479 17.1271 34.0187 17.5427 34.2448 18.1281C34.4156 18.5677 34.6198 19.2292 34.675 20.4479C34.7344 21.7667 34.7479 22.1625 34.7479 25.5C34.7479 28.8375 34.7323 29.2344 34.6708 30.5521C34.6073 31.7708 34.4042 32.4323 34.2323 32.8719C33.999 33.4573 33.7333 33.8719 33.2958 34.3115C32.8594 34.7479 32.4375 35.0187 31.8583 35.2448C31.4208 35.4156 30.749 35.6198 29.5302 35.675C28.2031 35.7344 27.8125 35.7479 24.4688 35.7479C21.124 35.7479 20.7333 35.7323 19.4073 35.6708C18.1875 35.6073 17.5156 35.4042 17.0781 35.2323C16.4854 34.999 16.0781 34.7333 15.6417 34.2958C15.2031 33.8594 14.9229 33.4375 14.7042 32.8583C14.5323 32.4208 14.3302 31.749 14.2667 30.5302C14.2198 29.2177 14.2031 28.8125 14.2031 25.4844C14.2031 22.1552 14.2198 21.749 14.2667 20.4208C14.3302 19.2021 14.5323 18.5312 14.7042 18.0937C14.9229 17.5 15.2031 17.0938 15.6417 16.6552C16.0781 16.2188 16.4854 15.9375 17.0781 15.7198C17.5156 15.5469 18.1729 15.3438 19.3917 15.2812C20.7198 15.2344 21.1104 15.2188 24.4531 15.2188L24.5 15.25ZM24.5 19.0812C20.9531 19.0812 18.0812 21.9562 18.0812 25.5C18.0812 29.0469 20.9562 31.9188 24.5 31.9188C28.0469 31.9188 30.9188 29.0437 30.9188 25.5C30.9188 21.9531 28.0437 19.0812 24.5 19.0812ZM24.5 29.6667C22.1979 29.6667 20.3333 27.8021 20.3333 25.5C20.3333 23.1979 22.1979 21.3333 24.5 21.3333C26.8021 21.3333 28.6667 23.1979 28.6667 25.5C28.6667 27.8021 26.8021 29.6667 24.5 29.6667ZM32.6729 18.8281C32.6729 19.6562 32 20.3281 31.1729 20.3281C30.3448 20.3281 29.6729 19.6552 29.6729 18.8281C29.6729 18.001 30.3458 17.3292 31.1729 17.3292C31.999 17.3281 32.6729 18.001 32.6729 18.8281Z"/></svg>