<svg width="50" height="50" viewBox="0 0 50 50" fill="none" xmlns="http://www.w3.org/2000/svg">
    <path d="M25 0L46.6506 12.5V37.5L25 50L3.34937 37.5V12.5L25 0Z" fill="black" />
    <path
        d="M34.299 34.3042H30.5969V28.5031C30.5969 27.1198 30.5688 25.3396 28.6677 25.3396C26.7375 25.3396 26.4427 26.8448 26.4427 28.401V34.3042H22.7406V22.375H26.2969V24.001H26.3448C26.8417 23.0635 28.05 22.074 29.8552 22.074C33.6062 22.074 34.3 24.5427 34.3 27.7562V34.3042H34.299ZM18.5594 20.7427C17.3677 20.7427 16.4104 19.7781 16.4104 18.5917C16.4104 17.4062 17.3687 16.4427 18.5594 16.4427C19.7469 16.4427 20.7094 17.4062 20.7094 18.5917C20.7094 19.7781 19.7458 20.7427 18.5594 20.7427ZM20.4156 34.3042H16.7031V22.375H20.4156V34.3042ZM36.151 13H14.8448C13.825 13 13 13.8062 13 14.801V36.199C13 37.1948 13.825 38 14.8448 38H36.1479C37.1667 38 38 37.1948 38 36.199V14.801C38 13.8062 37.1667 13 36.1479 13H36.151Z"
        fill="white" />
</svg>