<svg width="50" height="50" viewBox="0 0 50 50" fill="none" xmlns="http://www.w3.org/2000/svg">
    <path d="M25 0L46.6506 12.5V37.5L25 50L3.34937 37.5V12.5L25 0Z" fill="black" />
    <path
        d="M40.6987 15.9779C39.5472 16.4849 38.3272 16.8196 37.0781 16.9711C38.3932 16.1807 39.3779 14.9411 39.8503 13.4813C38.6315 14.1926 37.2806 14.7103 35.8427 14.9987C34.8939 13.9842 33.6368 13.3113 32.2665 13.0846C30.8961 12.8579 29.4893 13.0899 28.2643 13.7447C27.0394 14.3996 26.065 15.4405 25.4923 16.706C24.9197 17.9714 24.7809 19.3905 25.0975 20.7429C19.8557 20.4956 15.2124 17.9772 12.1019 14.1733C11.5364 15.1343 11.2415 16.2304 11.2483 17.3454C11.2483 19.5369 12.3633 21.4632 14.0525 22.5949C13.0514 22.563 12.0723 22.2923 11.197 21.8054V21.8823C11.1965 23.3387 11.6998 24.7505 12.6216 25.8781C13.5434 27.0057 14.8269 27.7797 16.2543 28.0687C15.3294 28.3165 14.3606 28.3538 13.4194 28.1776C13.8245 29.4311 14.6108 30.5268 15.6686 31.3118C16.7264 32.0969 18.0029 32.5322 19.32 32.5569C17.0893 34.3076 14.3351 35.2577 11.4995 35.2548C10.9997 35.2548 10.5011 35.2253 10 35.1689C12.891 37.02 16.2524 38.0026 19.6852 38C31.2878 38 37.6254 28.3929 37.6254 20.0765C37.6254 19.8074 37.6254 19.5382 37.6062 19.2691C38.8442 18.3782 39.9121 17.2721 40.759 16.0035L40.6987 15.9779Z"
        fill="white" />
</svg>