<svg xmlns="http://www.w3.org/2000/svg" width="16" height="16" viewBox="0 0 16 16"><path fill="#fff" d="M8.875 8c0-4.188-3.395-7.583-7.583-7.583h-1.291v3.333h1.292c2.347 0 4.25 1.903 4.25 4.25s-1.903 4.25-4.25 4.25h-1.292v3.333h1.292c4.187 0 7.583-3.395 7.583-7.583zM16 5.042c0-2.555-2.071-4.625-4.625-4.625h-5.333c1.314 0.832 2.371 1.956 3.101 3.287l0.023 0.047h2.209c0.713 0 1.292 0.579 1.292 1.292s-0.579 1.292-1.292 1.292h-1.292c0.209 1.101 0.209 2.232 0 3.333h1.292c0.712 0 1.292 0.578 1.292 1.292s-0.579 1.292-1.292 1.292h-2.209c-0.753 1.377-1.81 2.502-3.087 3.312l-0.037 0.022h5.333c1.081 0 2.127-0.379 2.959-1.070 1.962-1.633 2.231-4.549 0.597-6.513 0.665-0.796 1.070-1.83 1.070-2.959v-0z"/></svg>