<svg xmlns="http://www.w3.org/2000/svg" width="16" height="16" viewBox="0 0 16 16"><path fill="#fff" d="M0 0h16v16h-16zM14.689 12.184c-0.117-0.73-0.592-1.343-2.002-1.915-0.491-0.23-1.036-0.39-1.198-0.76-0.061-0.22-0.070-0.34-0.031-0.47 0.1-0.431 0.61-0.56 1.010-0.44 0.26 0.080 0.5 0.28 0.651 0.6 0.689-0.451 0.689-0.451 1.17-0.75-0.18-0.28-0.269-0.401-0.391-0.52-0.42-0.47-0.979-0.71-1.889-0.689l-0.47 0.059c-0.451 0.11-0.88 0.35-1.14 0.67-0.76 0.861-0.541 2.361 0.379 2.981 0.91 0.68 2.241 0.829 2.411 1.47 0.16 0.78-0.58 1.030-1.311 0.94-0.541-0.12-0.84-0.391-1.17-0.891l-1.22 0.701c0.14 0.32 0.3 0.459 0.54 0.739 1.16 1.171 4.060 1.111 4.581-0.669 0.019-0.060 0.16-0.47 0.049-1.1zM8.701 7.354h-1.499c0 1.292-0.006 2.576-0.006 3.87 0 0.821 0.042 1.575-0.092 1.807-0.22 0.459-0.787 0.401-1.044 0.32-0.264-0.131-0.398-0.311-0.553-0.57-0.042-0.070-0.073-0.131-0.085-0.131l-1.217 0.75c0.203 0.42 0.5 0.781 0.883 1.011 0.57 0.34 1.336 0.45 2.138 0.27 0.522-0.151 0.972-0.461 1.207-0.941 0.34-0.62 0.268-1.38 0.265-2.231 0.008-1.369 0-2.739 0-4.119z"/></svg>