<svg xmlns="http://www.w3.org/2000/svg" xmlns:xlink="http://www.w3.org/1999/xlink" x="0" y="0" version="1.1" viewBox="0 0 1799.6 1200.87" xml:space="preserve" style="enable-background:new 0 0 1799.6 1200.87"><style type="text/css">.st0{fill:#5a54ff}.st1{fill:#f44e4e}.st2{fill:#e3e5fc}.st3{fill:#fdc510}.st4{fill:#fff}.st5{fill:#a7adff}.st6{fill:#978cff}.st7{fill:#eff0fc}.st8{fill:#4b369d}.st9{fill:#d4a79a}.st10{fill:#eac2ab}.st11{fill:#f3aa02}.st12{fill:#d7384e}</style><g id="Nature"><path id="Plant_5_" d="M1157.27,1046.86c-0.77-1.74-1.26-4.07,0.19-5.3c1.05-0.89,2.61-0.73,3.94-0.4 c4.31,1.05,8.32,3.29,11.46,6.42c-1.16-5.08-1.12-10.44,0.12-15.5c0.33-1.34,0.96-2.88,2.32-3.15c1.75-0.36,2.99,1.61,3.68,3.26 c1.75,4.21,3.5,8.41,5.25,12.62c2.09-4.9,5.05-9.42,8.71-13.28c0.58-0.61,1.25-1.25,2.1-1.32c2.1-0.19,2.74,2.78,2.53,4.87 c-0.93,9.19-1.62,28.59-12.56,30.37C1174.1,1067.21,1161.28,1055.93,1157.27,1046.86z" class="st0"/><path id="Plant_4_" d="M959.54,1051.48c0.69-0.68,1.8-0.67,2.76-0.49c4.16,0.76,7.79,3.95,9.08,7.99 c0.26-3.84,1.14-7.63,2.6-11.19c0.61-1.48,1.37-2.99,2.67-3.92c1.3-0.93,3.29-1.08,4.41,0.07c0.86,0.88,0.98,2.23,0.99,3.46 c0.02,3.4-0.47,6.8-1.47,10.05c5.64-6.66,11.98-13.75,20.57-15.32c1.09-0.2,2.33-0.27,3.18,0.44c1.46,1.2,0.74,3.56-0.24,5.17 c-4.8,7.95-15.62,17.3-25.01,19.19C973.64,1068.02,953.34,1057.54,959.54,1051.48z" class="st1"/><ellipse id="Ground" cx="851.61" cy="925.78" class="st2" rx="480.47" ry="43.83"/><g id="Plant_3_"><path d="M949.02,845.51c6.9-0.49,12.13-7.6,17.48-13.11c5.35-5.51,13.38-9.71,18.84-4.35 c6.84,6.72,3.66,22.74,10.76,29.01c18.62-0.62,56.3-12.57,67.88,2.23c29.2,37.3,24.17,13.2,41.55,21.69 c1.32,0.65,2.75,1.42,3.41,3c1.7,4.04-2.78,7.67-6.32,8.65c-35.03,9.7-70.75,5.03-105.98,2.24c-17.37-1.38-34.26-4.62-51.54-2.24 c-12.59,1.74-26.59,7.38-38.49-0.35c-13.94-9.06-24.18-38.61-15.6-56.89C908.43,798.3,930.59,846.82,949.02,845.51z" class="st3"/><g><path d="M953.51,883.27c-0.36,0-0.72-0.1-1.04-0.32c-0.86-0.57-1.09-1.74-0.52-2.6l23.12-34.55 c0.57-0.86,1.73-1.09,2.6-0.52c0.86,0.57,1.09,1.74,0.52,2.6l-23.12,34.55C954.71,882.98,954.12,883.27,953.51,883.27z" class="st4"/></g><g><path d="M1017.21,915.94c-0.31,0-0.63-0.08-0.92-0.24c-0.9-0.51-1.22-1.65-0.71-2.55l27.48-48.77 c0.51-0.9,1.66-1.22,2.55-0.71c0.9,0.51,1.22,1.65,0.71,2.55l-27.48,48.77C1018.5,915.6,1017.87,915.94,1017.21,915.94z" class="st4"/></g><g><path d="M1035.62,883.27c-0.6,0-1.19-0.29-1.55-0.82l-10.92-16.1c-0.58-0.86-0.35-2.02,0.5-2.6 c0.85-0.58,2.02-0.36,2.6,0.5l10.92,16.1c0.58,0.86,0.35,2.02-0.5,2.6C1036.35,883.17,1035.99,883.27,1035.62,883.27z" class="st4"/></g></g><path id="Plant_2_" d="M1234.43,991.97c0.51,2.41,3.37,5.02,5.02,3.19c0.48-0.54,0.63-1.29,0.73-2 c1.23-8.38,0.62-18.25,7.1-23.7c2.36,4.42,4.71,8.84,7.07,13.25c3.33-12.31,7.21-25.46,17.16-33.43 c0.19,5.72,0.39,11.43,0.58,17.15c0.04,1.06,0.14,2.26,0.95,2.93c1.54,1.27,3.74-0.46,4.82-2.14c3.97-6.15,6.04-13.8,11.78-18.35 c1.06-0.84,2.53-1.56,3.7-0.9c0.72,0.41,1.09,1.24,1.3,2.04c1.47,5.6-2.75,10.88-5.67,15.88c-3.37,5.75-5.25,12.37-5.41,19.04 c3.54-2.91,7.08-5.83,10.62-8.74c2.12-1.75,5.69-3.33,7.17-1.02c0.87,1.35,0.24,3.14-0.58,4.51c-1.94,3.25-4.83,5.84-6.93,8.98 c-2.1,3.15-3.37,7.33-1.63,10.7c3.82-3.55,9.02-5.58,14.23-5.55c-8.01,4.62-8.83,15.87-14.54,23.14 c-9.81,12.49-39.14,18.96-52.9,9.64c-6.62-4.48-9.91-12.48-11.74-19.98c-1.16-4.78-2.14-10.29-0.26-15.03 C1229.67,984.89,1232.98,985.11,1234.43,991.97z" class="st2"/><g id="Plant_1_"><path d="M237.22,808.74c-3.48-5.08-6.88-10.58-7.09-16.65c-0.78-22.83,40.03-30.44,40.35-53.29 c0.17-12.49-12.14-21.18-21.24-30.13s-14.86-25.58-3.98-32.47c2.82-1.79,6.26-2.45,9.23-3.99c9.81-5.09,11.78-18.29,8.13-28.39 c-3.65-10.1-11.33-18.3-17.1-27.45C223,580.63,231.7,535.16,241.1,494.4c1.76-7.62,6.82-17.34,14.7-15.34 c4.82,1.22,7.09,6.38,8.68,10.91c6.8,19.32,13.6,38.63,20.4,57.95c2.9,8.23,7.51,17.86,16.52,18.84 c17.95,1.95,20.6-30.33,38.51-32.55c11.7,9.79,12.57,26.76,11.06,41.57s-4.33,30.61,2.67,43.88s29.14,19.65,37.83,7.32 c11.65,16.87-7.87,41.34,2.27,59.09c6.75,11.82,23.73,14.95,31.75,26.02c6.77,9.35,5.49,21.8,4.29,33.12 c-5.72,54.3-8.32,124.57-75.44,141.62C305.56,899.22,260.79,843.1,237.22,808.74z" class="st0"/><path d="M198.73,849.89c-2.1-2.17-4.25-4.63-4.54-7.64c-0.68-7.06,8.24-10.47,15.17-11.94 c6.93-1.47,15.62-6.33,13.43-13.08c-0.57-1.76-1.84-3.19-3.15-4.49c-6.68-6.7-15.01-11.74-20.95-19.11 c-5.93-7.38-8.9-18.55-3.3-26.17c1.61-2.19,3.86-4.02,4.73-6.6c1.61-4.82-2.19-9.57-5.33-13.56 c-8.32-10.57-30.48-57.59-4.15-61.45c8.55-1.25,16.78,4.28,22.06,11.11c5.28,6.84,8.49,15.03,13.17,22.28 c17.37,26.93,48.36,22.55,60.18,55.97c1.2,3.39,2.87,7.24,6.34,8.18c8,2.16,13.29-16.03,19.56-3.7 c12.64,24.85,25.28,59.06,14.25,86.52c-6.65,16.54-22.12,36.89-42.49,32.63C252.33,892.28,220.73,872.68,198.73,849.89z" class="st1"/><g><path d="M286.54,875.63c-0.68,0-1.34-0.38-1.67-1.03l-56.42-111.61c-0.47-0.92-0.1-2.05,0.83-2.52 c0.91-0.47,2.05-0.1,2.52,0.83l56.42,111.61c0.47,0.92,0.1,2.05-0.83,2.52C287.12,875.57,286.83,875.63,286.54,875.63z" class="st4"/></g><g><g><path d="M360.01,893.49c-0.87,0-1.65-0.61-1.83-1.5l-55.98-276.13c-0.2-1.01,0.45-2,1.46-2.21 c1.01-0.2,2.01,0.45,2.21,1.47l55.98,276.13c0.2,1.01-0.45,2-1.46,2.21C360.25,893.47,360.13,893.49,360.01,893.49z" class="st4"/></g><g><path d="M322.71,701.7c-0.26,0-0.52-0.05-0.77-0.16c-0.94-0.42-1.36-1.54-0.94-2.48l23.81-52.89 c0.43-0.95,1.54-1.36,2.48-0.94c0.94,0.42,1.36,1.54,0.94,2.48l-23.81,52.89C324.1,701.29,323.42,701.7,322.71,701.7z" class="st4"/></g><g><path d="M344.04,801.61c-0.26,0-0.52-0.05-0.77-0.16c-0.94-0.42-1.36-1.54-0.94-2.48l23.81-52.89 c0.42-0.95,1.54-1.36,2.48-0.94c0.94,0.42,1.36,1.54,0.94,2.48l-23.81,52.89C345.44,801.2,344.75,801.61,344.04,801.61z" class="st4"/></g><g><path d="M328.78,755.51c-0.27,0-0.54-0.06-0.8-0.18l-51.47-24.3c-0.93-0.44-1.34-1.56-0.89-2.49 c0.44-0.94,1.56-1.34,2.5-0.89l51.47,24.3c0.93,0.44,1.34,1.56,0.89,2.49C330.16,755.12,329.48,755.51,328.78,755.51z" class="st4"/></g></g><path d="M242.56,850.28c25.12-9.77,52.74,3.21,76.91,15.13c24.17,11.92,53.29,23.04,76.98,10.16 c29.29-15.93,33.84-22.34,65.66-3.42c20.63,12.25,80.69,30.85,103.74,35.27c17.2,3.29,167.28,32.56,39.44,28.72 c-36.31-1.09-75.91-4.5-111.08-5.64c-76.24-2.46-152.72-10.98-229.08-7.46c-17.13,0.81-57.12,17.96-71.64,4.39 C173.26,908.5,224.89,857.16,242.56,850.28z" class="st3"/><g><path d="M269.54,842c-0.12,0-0.25-0.01-0.37-0.04c-1.02-0.2-1.68-1.19-1.47-2.2l7.78-38.87 c0.2-1.02,1.22-1.67,2.2-1.47c1.02,0.2,1.68,1.19,1.47,2.2l-7.78,38.87C271.2,841.39,270.42,842,269.54,842z" class="st4"/></g><g><path d="M460.15,938.35c-0.61,0-1.21-0.3-1.57-0.85l-29.42-44.81c-0.57-0.87-0.33-2.03,0.54-2.59 c0.86-0.57,2.02-0.33,2.59,0.54l29.42,44.81c0.57,0.87,0.33,2.03-0.54,2.59C460.86,938.25,460.51,938.35,460.15,938.35z" class="st4"/></g><g><path d="M292.79,931.35c-0.51,0-1.01-0.21-1.38-0.61l-34.46-37.81c-0.7-0.76-0.64-1.95,0.12-2.65 s1.95-0.64,2.65,0.12l34.46,37.81c0.7,0.76,0.64,1.95-0.12,2.65C293.69,931.19,293.24,931.35,292.79,931.35z" class="st4"/></g><g><path d="M277.32,914.37c-0.39,0-0.78-0.12-1.12-0.37c-0.83-0.62-1.01-1.79-0.39-2.62l15.47-20.84 c0.62-0.83,1.8-1,2.62-0.39c0.83,0.62,1.01,1.79,0.39,2.62l-15.47,20.84C278.45,914.11,277.89,914.37,277.32,914.37z" class="st4"/></g><g><path d="M445.44,915.94c-0.28,0-0.56-0.06-0.82-0.19l-34-16.58c-0.93-0.45-1.32-1.57-0.86-2.5 c0.46-0.93,1.59-1.31,2.5-0.86l34,16.58c0.93,0.45,1.32,1.57,0.86,2.5C446.8,915.56,446.14,915.94,445.44,915.94z" class="st4"/></g><g><path d="M437.58,903.95c-0.22,0-0.45-0.04-0.67-0.12c-0.97-0.37-1.45-1.45-1.09-2.42l7.87-20.68 c0.37-0.97,1.46-1.45,2.42-1.08c0.97,0.37,1.45,1.45,1.09,2.42l-7.87,20.68C439.04,903.5,438.33,903.95,437.58,903.95z" class="st4"/></g></g><g id="Plant"><path d="M1427.06,799.43c-0.47-3.71-0.54-7.97,2.14-10.58c6.39-6.21,17.92,4.59,25.54-0.02 c4.12-2.49,4.73-8.3,3.58-12.97c-1.15-4.67-3.57-9.06-3.87-13.85c-0.82-13.15,13.37-21.37,21.61-31.66 c7.7-9.62,11.22-23.11,21.81-29.41c3.07-1.83,6.96-2.89,10.21-1.41c5.94,2.7,5.73,11.11,4.41,17.5 c-3.48,16.8-7.65,36.07,2.8,49.67c4.01,5.22,10.26,9.96,9.81,16.54c-0.48,6.98-8.33,11.09-10.8,17.63 c-3.02,8.01,2.78,17.14,0.49,25.39c-2.39,8.63-12.35,12.65-17.39,20.06c-2.35,3.46-3.6,7.64-6.3,10.83 c-11.84,13.98-33.45,3.33-42.42-7.72C1437.06,835.13,1429.39,817.74,1427.06,799.43z" class="st5"/><path d="M1206.43,785.21c25.03-11.31,52.81,4.37,77.13,18.77s53.58,27.89,77.14,12.88 c29.14-18.57,33.62-26.12,65.66-3.35c20.78,14.74,81.08,37.46,104.19,42.94c17.25,4.09,167.74,40.42,39.78,34.48 c-36.35-1.69-76.01-6.16-111.21-7.89c-76.32-3.75-152.94-14.68-229.31-11.33c-17.14,0.77-56.96,20.67-71.64,4.42 C1137.72,853.48,1188.82,793.17,1206.43,785.21z" class="st2"/><path d="M1441.18,768.58c3.13-5.34,5.37-13.37-0.29-16.39c-2.32-1.24-5.17-1.02-7.83-0.76 c-8.81,0.86-17.61,1.71-26.42,2.57c-2.8-10.67,3.58-21.68,11.71-29.62c8.13-7.95,18.18-14.14,25.51-22.73 c7.33-8.59,11.52-20.99,5.78-30.58c-5.74-9.59-24.03-10.9-28.13-0.6c8.31-19.28,16.63-38.56,24.94-57.83 c2.11-4.89,3.57-11.72-1.31-14.36c-2.45-1.32-5.52-0.86-8.26-0.19c-13.28,3.25-25.42,10.47-34.2,20.33 c10.31-17.01-3.96-38-20.01-50.53c-14.57-11.37-36.94-20.16-51.47-8.73c-17.57,13.83-5.35,40.26-8.01,61.58 c-0.52,4.19-1.88,8.6-5.39,11.26c-5.6,4.26-14.08,2.38-20.75,4.95c-12.68,4.89-12.44,21.51-10.04,34.12 c6.7,35.11,13.39,70.22,20.09,105.32c-11.56-8.72-23.11-17.44-34.67-26.16c-5.39-4.06-12.32-8.37-18.7-5.84 c-3.68,1.46-6.04,4.95-7.05,8.57c-4.38,15.8,12.59,28.84,20.95,43.18c17.22,29.57-4.21,119.85,59.39,84.26 C1374.02,854.12,1415,813.26,1441.18,768.58z" class="st0"/><g><path d="M1466.86,848.72c-0.16,0-0.31-0.02-0.48-0.06c-1-0.26-1.6-1.29-1.34-2.29l19.98-76.1 c0.26-1,1.27-1.6,2.29-1.34c1,0.26,1.6,1.29,1.34,2.29l-19.98,76.1C1468.45,848.16,1467.69,848.72,1466.86,848.72z" class="st4"/></g><g><path d="M1475.97,810.67c-0.7,0-1.38-0.4-1.7-1.08c-0.44-0.94-0.03-2.05,0.9-2.49l23.36-10.95 c0.93-0.44,2.05-0.04,2.49,0.9c0.44,0.94,0.03,2.05-0.9,2.49l-23.36,10.95C1476.51,810.61,1476.24,810.67,1475.97,810.67z" class="st4"/></g><g><path d="M1469.58,838.33c-0.67,0-1.33-0.37-1.66-1.01l-17.26-33.14c-0.48-0.92-0.12-2.05,0.8-2.53 c0.9-0.48,2.05-0.12,2.52,0.8l17.26,33.14c0.48,0.92,0.12,2.05-0.8,2.53C1470.17,838.27,1469.88,838.33,1469.58,838.33z" class="st4"/></g><g><path d="M1326.82,862.72c-0.15,0-0.3-0.02-0.45-0.05c-1.01-0.25-1.62-1.26-1.37-2.27l52.6-213.91 c0.25-1,1.26-1.63,2.27-1.37c1.01,0.25,1.62,1.26,1.37,2.27l-52.6,213.91C1328.43,862.15,1327.67,862.72,1326.82,862.72z" class="st4"/></g><g><path d="M1361.16,723.07c-0.59,0-1.17-0.28-1.53-0.8c-0.6-0.85-0.39-2.01,0.46-2.61l46.99-32.9 c0.85-0.59,2.02-0.39,2.61,0.46c0.6,0.85,0.39,2.01-0.46,2.61l-46.99,32.9C1361.91,722.96,1361.54,723.07,1361.16,723.07z" class="st4"/></g><g><path d="M1335.37,838.33c-0.57,0-1.13-0.26-1.5-0.76c-0.62-0.83-0.44-2,0.38-2.62l59.04-43.93 c0.82-0.61,2-0.45,2.62,0.39c0.62,0.83,0.44,2-0.38,2.62l-59.04,43.93C1336.15,838.21,1335.76,838.33,1335.37,838.33z" class="st4"/></g><path d="M1418.25,842.4c-7.69-2.59-16.98-3.52-23.98,0.18c-10.35,5.46-11.91,18.76-22.96,23.19 c-13.77,5.52-29.4-7.08-44.49-4.92c-12.91,1.85-21.22,13.94-34.25,15.01c-6.21,0.51-12.22-1.63-18.11-3.31 c-5.9-1.68-12.59-2.89-18.21-0.65s-8.35,9.36-3.53,12.62c2.16,1.46,5.12,1.75,7.91,1.97c47.77,3.8,96.09,5.05,144.04,3.03 c13.65-0.58,37.02-0.05,42.48-13.61C1452.71,862.13,1431.76,846.95,1418.25,842.4z" class="st1"/><g><path d="M1404.68,891.39c-0.17,0-0.34-0.02-0.52-0.07c-1-0.28-1.57-1.32-1.28-2.32l8.47-29.58 c0.28-0.99,1.29-1.58,2.32-1.28c1,0.28,1.57,1.32,1.28,2.32l-8.47,29.58C1406.24,890.85,1405.49,891.39,1404.68,891.39z" class="st4"/></g><g><path d="M1409.31,875.22c-0.65,0-1.28-0.34-1.62-0.94l-4.63-8.05c-0.52-0.9-0.2-2.04,0.69-2.56 c0.89-0.51,2.04-0.21,2.56,0.69l4.63,8.05c0.52,0.9,0.2,2.04-0.69,2.56C1409.95,875.14,1409.62,875.22,1409.31,875.22z" class="st4"/></g></g></g><g id="UI"><g id="Computer"><g><path d="M987.03,897.49H721.06c-8.11,0-14.75-6.64-14.75-14.75v-2.68c0-8.11,6.64-14.75,14.75-14.75h265.97 c8.11,0,14.75,6.64,14.75,14.75v2.68C1001.78,890.85,995.14,897.49,987.03,897.49z" class="st6"/><path d="M904.42,897.49H803.67c-6.33,0-11.51-5.18-11.51-11.51V766.21c0-6.33,5.18-11.51,11.51-11.51h100.75 c6.33,0,11.51,5.18,11.51,11.51v119.78C915.92,892.31,910.75,897.49,904.42,897.49z" class="st6"/><g><path d="M1316.83,797.85H391.25c-17.43,0-31.69-14.26-31.69-31.69V201.55c0-17.43,14.26-31.69,31.69-31.69h925.57 c17.43,0,31.69,14.26,31.69,31.69v564.61C1348.52,783.59,1334.26,797.85,1316.83,797.85z" class="st5"/><path d="M406.8,184.47c-17.11,0-31.11,14-31.11,31.11v200.94c97.93-78.62,197.27-155.83,297.6-232.05H406.8z" class="st7"/><path d="M1297.48,184.47h-88.87H673.29c-100.33,76.22-199.67,153.44-297.6,232.05v210.97v75.96 c0,17.11,14,31.11,31.11,31.11h890.68c17.11,0,31.11-14,31.11-31.11V215.58C1328.59,198.47,1314.59,184.47,1297.48,184.47z" class="st2"/></g></g><circle cx="852.14" cy="762.15" r="8.6" class="st8"/></g></g><g id="Background"><g id="Mop"><g><path d="M1191.12,521.42c-1.32,0-2.64-0.46-3.71-1.4L913,279.01c-2.33-2.05-2.56-5.6-0.51-7.93 c2.05-2.33,5.6-2.57,7.93-0.51l274.41,241.02c2.33,2.05,2.56,5.6,0.51,7.93C1194.24,520.78,1192.68,521.42,1191.12,521.42z" class="st6"/></g><g><path d="M878.48,319.69c-2.39,0-4.77-0.91-6.6-2.72c-3.67-3.65-3.69-9.58-0.05-13.25l75.67-76.22 c3.65-3.67,9.57-3.69,13.25-0.05c3.67,3.65,3.69,9.58,0.05,13.25l-75.67,76.22C883.29,318.77,880.89,319.69,878.48,319.69z" class="st6"/></g></g><g id="Ladder"><g><rect width="3.75" height="532.68" x="1110.06" y="495.8" class="st8" transform="matrix(0.9973 -0.0732 0.0732 0.9973 -52.8389 83.4945)"/></g><g><rect width="3.75" height="532.68" x="1197.48" y="495.8" class="st8" transform="matrix(0.9973 -0.0732 0.0732 0.9973 -52.6041 89.8978)"/></g><g><rect width="87.42" height="3.75" x="1096.29" y="547.33" class="st8"/></g><g><rect width="87.42" height="3.75" x="1100.79" y="593.69" class="st8"/></g><g><rect width="87.42" height="3.75" x="1105.3" y="640.06" class="st8"/></g><g><rect width="87.42" height="3.75" x="1105.3" y="686.43" class="st8"/></g><g><rect width="87.42" height="3.75" x="1109.8" y="732.79" class="st8"/></g><g><rect width="87.42" height="3.75" x="1114.3" y="779.16" class="st8"/></g><g><rect width="87.42" height="3.75" x="1114.3" y="825.52" class="st8"/></g><g><rect width="87.42" height="3.75" x="1118.8" y="871.89" class="st8"/></g></g></g><g id="Characters"><g id="Woman"><g id="Head"><g id="Face"><path d="M1189.82,445.37l1.39,25.87l20.25,7.81c0,0-12.17-17.81-10.11-33.67 C1203.4,429.5,1189.82,445.37,1189.82,445.37z" class="st9"/><path d="M1171.73,392.44c0,0-4.41,5.84-0.11,23.76c4.3,17.92,11.28,33.21,16.68,32.14 c14.93-2.98,20.17-13.53,25.34-22.59c6.35-11.1-6.25-38.19-6.25-38.19l-11.91-6.42L1171.73,392.44z" class="st10"/></g><path id="Hair" d="M1174.76,378.45c-9.5,9.03-12.66,22.91-13.05,36.01c-0.2,6.63,0.2,13.34,2.01,19.72 c2.01,7.12,5.71,13.62,8.77,20.35c0.53,1.17,1.05,2.4,0.94,3.68c-0.14,1.52-1.14,2.8-2,4.06c-5.7,8.41-5.67,20.32,0.08,28.7 c2.02,2.94,4.86,5.56,8.36,6.21c4.36,0.82,10.52-0.65,11.99,3.54c0.73,2.09-0.44,4.47,0.25,6.57c1.02,3.09,5.2,3.61,8.4,2.99 c3.2-0.62,6.74-1.74,9.52-0.04c3.65,2.24,3.77,8.13,7.57,10.1c1.43,0.74,3.11,0.75,4.73,0.75c6.64-0.01,9.62,5.03,16.26,5.02 c2.97-0.01,9.8-5.13,12.24-6.82c2.44-1.68,3.51-5.64,1.31-7.62c-2.13-1.92-6.03-1.06-7.74-3.36c-2.73-3.7,4.1-8.31,2.97-12.77 c-0.38-1.51-1.66-2.7-1.94-4.23c-0.33-1.82,0.82-3.54,1.35-5.32c1.74-5.8-3.14-11.35-7.85-15.15s-10.19-8.19-10.17-14.24 c0.02-7.15,7.86-12.21,8.63-19.33c0.82-7.6-6.71-14.17-6.07-21.78c0.39-4.64,3.78-8.6,4.27-13.23 c0.57-5.34-2.77-10.22-5.95-14.55c-2.38-3.24-4.82-6.54-8.12-8.82c-4.47-3.09-7.95-1.02-12.37-2.2 c-3.94-1.05-6.74-4.53-11.18-5.33C1189.81,369.89,1180.74,372.77,1174.76,378.45z" class="st8"/></g><g id="Leg_1_"><path id="Skin_1_" d="M1253.61,738.19l24.3,24.52l9.03-7.28l-26.87-24.07 C1260.07,731.35,1254.57,734.61,1253.61,738.19z" class="st9"/><path id="Shoe_1_" d="M1264.6,807.8c0,0,6.84-5.4,16.39-18.03c9.56-12.64,19.61-27.13,19.38-31.09 c-0.23-3.96-15.86-16.51-18.71-12.09s2.43,10.28-8.32,14.39c-9.21,3.52-3.43,14.82-8.48,28.05 C1259.81,802.25,1257.75,807.6,1264.6,807.8z" class="st11"/><path id="Leg_3_" d="M1236.56,677.03c2.38,9.38,3.07,19.54,8.21,27.21c7.81,11.66,21.52,15.01,34.06,17.56 c-3.58,11.47-10.48,21.07-17.24,30.4c-5,6.9-10.12,13.92-16.79,18.55c-2.26-8.91-4.55-17.91-8.58-25.93 c-3.6-7.16-8.48-13.33-12.71-20.02c-12.56-19.87-19.07-43.88-25.38-67.41c-3.29-12.28-27.15-108.42,5.35-86.26 C1225.54,586.17,1220.27,612.79,1236.56,677.03z" class="st8"/></g><g id="Leg"><path id="Skin" d="M1179.1,773.99l-7.41,33.71l11.02,3.64l5.64-35.63C1188.35,775.71,1182.62,772.86,1179.1,773.99z" class="st10"/><path id="Shoe" d="M1126.58,820.99c0,0,8.24,2.81,24.04,3.99s33.43,1.76,36.64-0.59s5.27-22.28,0-22.28 c-5.27,0-7.31,7.62-16.6,0.82c-7.96-5.83-14.31,5.16-28.16,8.09C1128.64,813.96,1123.03,815.13,1126.58,820.99z" class="st3"/><path id="Leg_2_" d="M1150.45,781.51c0.6-1.2,2.05-2.04,3.32-2.92c11.57-8.08,9.73-21.64,8.71-33.45 c-2.42-28.01,3.83-55.7,7.26-83.35c3.34-26.99,2.35-54.35-2.16-81.15c-1.64-9.74-3.8-24.77,10.86-21.02 c6.95,1.78,13.9,1.95,20.99,1.17c3.73-0.41,0.04-1.85,3.73-0.41c12.56,4.9,2.95,17.52-0.22,25.79 c-6.31,16.47-0.31,48.53-2.29,66.28c-2.8,25.16-4.47,46.05-3.06,71.28c0.69,12.36,1.62,24.71,2.48,37.06 c0.5,7.2,5.48,23.24,1.07,29.45c-6.06,8.53-30.11-0.55-38.28-1.27C1156.7,788.43,1148.39,785.58,1150.45,781.51z" class="st0"/></g><path id="Arm" d="M1148.7,494.9c-11.42,8.63-26.84,23.94-37.83,6.14c-5.75-9.32-9.81-19.55-15.18-29.09 c-3.81-9.89-8.38-20.33-8.03-31.15c0.36-11.05-0.29-25.95-1.35-28.66c-1.06-2.71-13.74-14.61-13.9-9.66 c-0.16,4.95,7.08,23.12-2.34,14.52c-2.83-2.58-1.16,2.2-0.2,7.95c0.96,5.75,8.63,13.36,8.63,13.36 c7.61,31.98,5.4,69.88,40.77,85.58c9.82,4.36,25.27-9.73,33.15-14.57c2.79-1.72,30.4-20.69,31.14-19.96 c-3.25-3.19-6.5-6.39-9.75-9.58c-0.78-0.77-1.63-1.57-2.71-1.73c-1.26-0.19-2.46,0.54-3.5,1.27c-5.19,3.64-9.73,8.1-14.6,12.16 C1151.6,492.65,1150.17,493.79,1148.7,494.9z" class="st10"/><g id="Body_1_"><path d="M1165.66,565.99c0-1.19-1.98-32.01,2.37-51.77c4.35-19.76,0-36.75,15.02-48.61s27.27,3.95,31.22,12.25 s0.38,50.71,0.94,64.67c0.57,14.27,0,11.69,3.15,27.05c2.01,9.82,20.81,32.9-2.92,25.99c-8.06-2.35-24.96-3.36-31.86-5.8 c-6.17-2.18-13.48-3.72-18.36-8.77C1163.68,579.42,1165.66,565.99,1165.66,565.99z" class="st12"/><path d="M1157.27,481.46c0,0,27.74-29.57,38.38-16.15c10.64,13.42-27.02,41.09-27.02,41.09l-17.09-22.22 L1157.27,481.46z" class="st1"/></g></g></g></svg>