<svg width="1440" height="1024" viewBox="0 0 1440 1024" fill="none" xmlns="http://www.w3.org/2000/svg">
    <rect width="1440" height="1024" fill="url(#paint0_radial)" />
    <path
        d="M416.136 525.68V516.848L436.36 487.92H448.584V516.208H453.832V525.68H448.584V534H437.64V525.68H416.136ZM438.408 499.952L427.656 516.208H438.408V499.952ZM459.193 510C459.193 502.661 460.601 496.88 463.417 492.656C466.275 488.432 470.862 486.32 477.177 486.32C483.491 486.32 488.057 488.432 490.873 492.656C493.731 496.88 495.161 502.661 495.161 510C495.161 517.424 493.731 523.248 490.873 527.472C488.057 531.696 483.491 533.808 477.177 533.808C470.862 533.808 466.275 531.696 463.417 527.472C460.601 523.248 459.193 517.424 459.193 510ZM484.409 510C484.409 505.691 483.939 502.384 483.001 500.08C482.062 497.733 480.121 496.56 477.177 496.56C474.233 496.56 472.291 497.733 471.353 500.08C470.414 502.384 469.945 505.691 469.945 510C469.945 512.901 470.115 515.312 470.457 517.232C470.798 519.109 471.481 520.645 472.505 521.84C473.571 522.992 475.129 523.568 477.177 523.568C479.225 523.568 480.761 522.992 481.785 521.84C482.851 520.645 483.555 519.109 483.897 517.232C484.238 515.312 484.409 512.901 484.409 510ZM501.199 525.68V516.848L521.423 487.92H533.647V516.208H538.895V525.68H533.647V534H522.703V525.68H501.199ZM523.471 499.952L512.719 516.208H523.471V499.952ZM550.463 534.512C548.543 534.512 546.964 533.957 545.727 532.848C544.532 531.696 543.935 530.288 543.935 528.624C543.935 526.917 544.532 525.488 545.727 524.336C546.964 523.184 548.543 522.608 550.463 522.608C552.34 522.608 553.876 523.184 555.071 524.336C556.308 525.488 556.927 526.917 556.927 528.624C556.927 530.288 556.308 531.696 555.071 532.848C553.876 533.957 552.34 534.512 550.463 534.512ZM550.463 508.464C548.543 508.464 546.964 507.909 545.727 506.8C544.532 505.648 543.935 504.24 543.935 502.576C543.935 500.869 544.532 499.44 545.727 498.288C546.964 497.136 548.543 496.56 550.463 496.56C552.34 496.56 553.876 497.136 555.071 498.288C556.308 499.44 556.927 500.869 556.927 502.576C556.927 504.24 556.308 505.648 555.071 506.8C553.876 507.909 552.34 508.464 550.463 508.464ZM606.341 489.072V497.84H588.037V507.312H601.733V515.824H588.037V534H577.093V489.072H606.341ZM628.349 534.512C624.85 534.512 621.693 533.765 618.877 532.272C616.104 530.779 613.906 528.645 612.285 525.872C610.706 523.099 609.917 519.856 609.917 516.144C609.917 512.475 610.728 509.253 612.349 506.48C613.97 503.664 616.189 501.509 619.005 500.016C621.821 498.523 624.978 497.776 628.477 497.776C631.976 497.776 635.133 498.523 637.949 500.016C640.765 501.509 642.984 503.664 644.605 506.48C646.226 509.253 647.037 512.475 647.037 516.144C647.037 519.813 646.205 523.056 644.541 525.872C642.92 528.645 640.68 530.779 637.821 532.272C635.005 533.765 631.848 534.512 628.349 534.512ZM628.349 525.04C630.44 525.04 632.21 524.272 633.661 522.736C635.154 521.2 635.901 519.003 635.901 516.144C635.901 513.285 635.176 511.088 633.725 509.552C632.317 508.016 630.568 507.248 628.477 507.248C626.344 507.248 624.573 508.016 623.165 509.552C621.757 511.045 621.053 513.243 621.053 516.144C621.053 519.003 621.736 521.2 623.101 522.736C624.509 524.272 626.258 525.04 628.349 525.04ZM663.787 504.24C665.067 502.277 666.667 500.741 668.587 499.632C670.507 498.48 672.64 497.904 674.987 497.904V509.488H671.979C669.248 509.488 667.2 510.085 665.835 511.28C664.47 512.432 663.787 514.48 663.787 517.424V534H652.843V498.288H663.787V504.24ZM693.786 497.776C696.303 497.776 698.501 498.288 700.378 499.312C702.298 500.336 703.77 501.68 704.794 503.344V498.288H715.738V533.936C715.738 537.221 715.077 540.187 713.754 542.832C712.474 545.52 710.49 547.653 707.802 549.232C705.157 550.811 701.85 551.6 697.882 551.6C692.591 551.6 688.303 550.341 685.018 547.824C681.733 545.349 679.855 541.979 679.386 537.712H690.202C690.543 539.077 691.354 540.144 692.634 540.912C693.914 541.723 695.493 542.128 697.37 542.128C699.631 542.128 701.423 541.467 702.746 540.144C704.111 538.864 704.794 536.795 704.794 533.936V528.88C703.727 530.544 702.255 531.909 700.378 532.976C698.501 534 696.303 534.512 693.786 534.512C690.842 534.512 688.175 533.765 685.786 532.272C683.397 530.736 681.498 528.581 680.09 525.808C678.725 522.992 678.042 519.749 678.042 516.08C678.042 512.411 678.725 509.189 680.09 506.416C681.498 503.643 683.397 501.509 685.786 500.016C688.175 498.523 690.842 497.776 693.786 497.776ZM704.794 516.144C704.794 513.413 704.026 511.259 702.49 509.68C700.997 508.101 699.162 507.312 696.986 507.312C694.81 507.312 692.954 508.101 691.418 509.68C689.925 511.216 689.178 513.349 689.178 516.08C689.178 518.811 689.925 520.987 691.418 522.608C692.954 524.187 694.81 524.976 696.986 524.976C699.162 524.976 700.997 524.187 702.49 522.608C704.026 521.029 704.794 518.875 704.794 516.144ZM739.912 534.512C736.413 534.512 733.256 533.765 730.44 532.272C727.666 530.779 725.469 528.645 723.848 525.872C722.269 523.099 721.48 519.856 721.48 516.144C721.48 512.475 722.29 509.253 723.911 506.48C725.533 503.664 727.752 501.509 730.568 500.016C733.384 498.523 736.541 497.776 740.04 497.776C743.538 497.776 746.696 498.523 749.512 500.016C752.328 501.509 754.546 503.664 756.168 506.48C757.789 509.253 758.6 512.475 758.6 516.144C758.6 519.813 757.768 523.056 756.104 525.872C754.482 528.645 752.242 530.779 749.384 532.272C746.568 533.765 743.41 534.512 739.912 534.512ZM739.912 525.04C742.002 525.04 743.773 524.272 745.224 522.736C746.717 521.2 747.464 519.003 747.464 516.144C747.464 513.285 746.738 511.088 745.288 509.552C743.88 508.016 742.13 507.248 740.04 507.248C737.906 507.248 736.136 508.016 734.728 509.552C733.32 511.045 732.616 513.243 732.616 516.144C732.616 519.003 733.298 521.2 734.664 522.736C736.072 524.272 737.821 525.04 739.912 525.04ZM784.31 524.72V534H778.742C774.774 534 771.68 533.04 769.462 531.12C767.243 529.157 766.134 525.979 766.134 521.584V507.376H761.782V498.288H766.134V489.584H777.078V498.288H784.246V507.376H777.078V521.712C777.078 522.779 777.334 523.547 777.846 524.016C778.358 524.485 779.211 524.72 780.406 524.72H784.31ZM828.475 489.072V534H817.531V489.072H828.475ZM881.974 497.904C886.411 497.904 889.931 499.248 892.534 501.936C895.179 504.624 896.502 508.357 896.502 513.136V534H885.622V514.608C885.622 512.304 885.003 510.533 883.766 509.296C882.571 508.016 880.907 507.376 878.774 507.376C876.64 507.376 874.955 508.016 873.718 509.296C872.523 510.533 871.926 512.304 871.926 514.608V534H861.046V514.608C861.046 512.304 860.427 510.533 859.19 509.296C857.995 508.016 856.331 507.376 854.198 507.376C852.064 507.376 850.379 508.016 849.142 509.296C847.947 510.533 847.35 512.304 847.35 514.608V534H836.406V498.288H847.35V502.768C848.459 501.275 849.91 500.101 851.702 499.248C853.494 498.352 855.52 497.904 857.782 497.904C860.47 497.904 862.859 498.48 864.95 499.632C867.083 500.784 868.747 502.427 869.942 504.56C871.179 502.597 872.864 500.997 874.998 499.76C877.131 498.523 879.456 497.904 881.974 497.904ZM901.98 516.08C901.98 512.411 902.662 509.189 904.028 506.416C905.436 503.643 907.334 501.509 909.724 500.016C912.113 498.523 914.78 497.776 917.724 497.776C920.241 497.776 922.438 498.288 924.316 499.312C926.236 500.336 927.708 501.68 928.732 503.344V498.288H939.676V534H928.732V528.944C927.665 530.608 926.172 531.952 924.252 532.976C922.374 534 920.177 534.512 917.66 534.512C914.758 534.512 912.113 533.765 909.724 532.272C907.334 530.736 905.436 528.581 904.028 525.808C902.662 522.992 901.98 519.749 901.98 516.08ZM928.732 516.144C928.732 513.413 927.964 511.259 926.428 509.68C924.934 508.101 923.1 507.312 920.924 507.312C918.748 507.312 916.892 508.101 915.356 509.68C913.862 511.216 913.116 513.349 913.116 516.08C913.116 518.811 913.862 520.987 915.356 522.608C916.892 524.187 918.748 524.976 920.924 524.976C923.1 524.976 924.934 524.187 926.428 522.608C927.964 521.029 928.732 518.875 928.732 516.144ZM961.161 497.776C963.678 497.776 965.876 498.288 967.753 499.312C969.673 500.336 971.145 501.68 972.169 503.344V498.288H983.113V533.936C983.113 537.221 982.452 540.187 981.129 542.832C979.849 545.52 977.865 547.653 975.177 549.232C972.532 550.811 969.225 551.6 965.257 551.6C959.966 551.6 955.678 550.341 952.393 547.824C949.108 545.349 947.23 541.979 946.761 537.712H957.577C957.918 539.077 958.729 540.144 960.009 540.912C961.289 541.723 962.868 542.128 964.745 542.128C967.006 542.128 968.798 541.467 970.121 540.144C971.486 538.864 972.169 536.795 972.169 533.936V528.88C971.102 530.544 969.63 531.909 967.753 532.976C965.876 534 963.678 534.512 961.161 534.512C958.217 534.512 955.55 533.765 953.161 532.272C950.772 530.736 948.873 528.581 947.465 525.808C946.1 522.992 945.417 519.749 945.417 516.08C945.417 512.411 946.1 509.189 947.465 506.416C948.873 503.643 950.772 501.509 953.161 500.016C955.55 498.523 958.217 497.776 961.161 497.776ZM972.169 516.144C972.169 513.413 971.401 511.259 969.865 509.68C968.372 508.101 966.537 507.312 964.361 507.312C962.185 507.312 960.329 508.101 958.793 509.68C957.3 511.216 956.553 513.349 956.553 516.08C956.553 518.811 957.3 520.987 958.793 522.608C960.329 524.187 962.185 524.976 964.361 524.976C966.537 524.976 968.372 524.187 969.865 522.608C971.401 521.029 972.169 518.875 972.169 516.144ZM1024.69 515.568C1024.69 516.592 1024.63 517.659 1024.5 518.768H999.735C999.905 520.987 1000.61 522.693 1001.85 523.888C1003.13 525.04 1004.68 525.616 1006.52 525.616C1009.25 525.616 1011.15 524.464 1012.21 522.16H1023.86C1023.27 524.507 1022.18 526.619 1020.6 528.496C1019.06 530.373 1017.12 531.845 1014.77 532.912C1012.43 533.979 1009.8 534.512 1006.9 534.512C1003.4 534.512 1000.29 533.765 997.559 532.272C994.828 530.779 992.695 528.645 991.159 525.872C989.623 523.099 988.855 519.856 988.855 516.144C988.855 512.432 989.601 509.189 991.095 506.416C992.631 503.643 994.764 501.509 997.495 500.016C1000.23 498.523 1003.36 497.776 1006.9 497.776C1010.36 497.776 1013.43 498.501 1016.12 499.952C1018.81 501.403 1020.9 503.472 1022.39 506.16C1023.93 508.848 1024.69 511.984 1024.69 515.568ZM1013.49 512.688C1013.49 510.811 1012.85 509.317 1011.57 508.208C1010.29 507.099 1008.69 506.544 1006.77 506.544C1004.94 506.544 1003.38 507.077 1002.1 508.144C1000.87 509.211 1000.1 510.725 999.799 512.688H1013.49Z"
        fill="white" />
    <defs>
        <radialGradient id="paint0_radial" cx="0" cy="0" r="1" gradientUnits="userSpaceOnUse"
            gradientTransform="translate(360 755) rotate(-24.8934) scale(1793.64 2522.31)">
            <stop stop-color="#FF2E00" />
            <stop offset="0.578125" stop-color="#D68C2D" />
            <stop offset="1" stop-color="#CBC53D" />
        </radialGradient>
    </defs>
</svg>