<svg width="710" height="526" viewBox="0 0 710 526" fill="none" xmlns="http://www.w3.org/2000/svg">
    <path
        d="M22.7921 184.748C22.7921 184.748 -82.824 440.855 160.652 492.47C404.128 544.084 607.655 546.653 662.291 416.348C716.927 286.042 743.369 149.361 631.558 69.9147C519.747 -9.5316 146.086 -73.3848 22.7921 184.748Z"
        fill="#24285B" />
    <path
        d="M228.645 147.064C233.969 147.064 238.285 142.748 238.285 137.424C238.285 132.1 233.969 127.785 228.645 127.785C223.321 127.785 219.005 132.1 219.005 137.424C219.005 142.748 223.321 147.064 228.645 147.064Z"
        fill="#FFD200" />
    <path
        d="M460.638 48.1569C464.493 48.1569 467.618 45.0316 467.618 41.1763C467.618 37.321 464.493 34.1956 460.638 34.1956C456.783 34.1956 453.657 37.321 453.657 41.1763C453.657 45.0316 456.783 48.1569 460.638 48.1569Z"
        fill="white" />
    <path
        d="M570.878 367.816C573.348 367.816 575.35 365.813 575.35 363.343C575.35 360.873 573.348 358.871 570.878 358.871C568.407 358.871 566.405 360.873 566.405 363.343C566.405 365.813 568.407 367.816 570.878 367.816Z"
        fill="white" />
    <path
        d="M24.8772 288.823C27.3473 288.823 29.3497 286.82 29.3497 284.35C29.3497 281.88 27.3473 279.878 24.8772 279.878C22.4072 279.878 20.4048 281.88 20.4048 284.35C20.4048 286.82 22.4072 288.823 24.8772 288.823Z"
        fill="white" />
    <path
        d="M297.273 48.8217C299.743 48.8217 301.746 46.8193 301.746 44.3493C301.746 41.8792 299.743 39.8768 297.273 39.8768C294.803 39.8768 292.801 41.8792 292.801 44.3493C292.801 46.8193 294.803 48.8217 297.273 48.8217Z"
        fill="white" />
    <path
        d="M199.846 423.54C202.317 423.54 204.319 421.537 204.319 419.067C204.319 416.597 202.317 414.595 199.846 414.595C197.376 414.595 195.374 416.597 195.374 419.067C195.374 421.537 197.376 423.54 199.846 423.54Z"
        fill="white" />
    <path
        d="M90.2718 415.653C91.0729 415.653 91.7223 415.003 91.7223 414.202C91.7223 413.401 91.0729 412.752 90.2718 412.752C89.4707 412.752 88.8213 413.401 88.8213 414.202C88.8213 415.003 89.4707 415.653 90.2718 415.653Z"
        fill="white" />
    <path
        d="M155.062 90.5544C155.863 90.5544 156.512 89.9049 156.512 89.1038C156.512 88.3027 155.863 87.6533 155.062 87.6533C154.26 87.6533 153.611 88.3027 153.611 89.1038C153.611 89.9049 154.26 90.5544 155.062 90.5544Z"
        fill="white" />
    <path
        d="M407.513 109.895C408.314 109.895 408.964 109.246 408.964 108.444C408.964 107.643 408.314 106.994 407.513 106.994C406.712 106.994 406.062 107.643 406.062 108.444C406.062 109.246 406.712 109.895 407.513 109.895Z"
        fill="white" />
    <path
        d="M237.379 352.071C238.18 352.071 238.829 351.422 238.829 350.621C238.829 349.82 238.18 349.17 237.379 349.17C236.578 349.17 235.928 349.82 235.928 350.621C235.928 351.422 236.578 352.071 237.379 352.071Z"
        fill="white" />
    <path
        d="M478.105 225.483C478.906 225.483 479.555 224.834 479.555 224.033C479.555 223.232 478.906 222.582 478.105 222.582C477.303 222.582 476.654 223.232 476.654 224.033C476.654 224.834 477.303 225.483 478.105 225.483Z"
        fill="white" />
    <path
        d="M126.051 263.227C126.852 263.227 127.502 262.578 127.502 261.777C127.502 260.976 126.852 260.326 126.051 260.326C125.25 260.326 124.601 260.976 124.601 261.777C124.601 262.578 125.25 263.227 126.051 263.227Z"
        fill="white" />
    <path
        d="M657.607 262.23C658.408 262.23 659.057 261.58 659.057 260.779C659.057 259.978 658.408 259.329 657.607 259.329C656.806 259.329 656.156 259.978 656.156 260.779C656.156 261.58 656.806 262.23 657.607 262.23Z"
        fill="white" />
    <path
        d="M625.725 83.1206C626.527 83.1206 627.176 82.4712 627.176 81.6701C627.176 80.869 626.527 80.2196 625.725 80.2196C624.924 80.2196 624.275 80.869 624.275 81.6701C624.275 82.4712 624.924 83.1206 625.725 83.1206Z"
        fill="white" />
    <path
        d="M561.419 460.105C562.22 460.105 562.87 459.456 562.87 458.655C562.87 457.854 562.22 457.204 561.419 457.204C560.618 457.204 559.969 457.854 559.969 458.655C559.969 459.456 560.618 460.105 561.419 460.105Z"
        fill="white" />
    <path
        d="M442.598 390.148C443.399 390.148 444.048 389.498 444.048 388.697C444.048 387.896 443.399 387.247 442.598 387.247C441.797 387.247 441.147 387.896 441.147 388.697C441.147 389.498 441.797 390.148 442.598 390.148Z"
        fill="white" />
    <path
        d="M269.364 194.406C269.364 194.406 255.796 199.774 253.8 212.812C251.805 225.849 282.637 264.041 282.637 264.041L377.721 212.804L347.659 160.046L269.364 194.406Z"
        fill="#C7DCF9" />
    <path
        d="M290.387 206.73C290.387 206.73 280.383 217.002 277.314 228.368C274.245 239.733 273.85 260.03 274.361 267.633C289.286 281.444 348.281 269.871 348.281 269.871L405.133 202.994C405.133 202.994 395.495 184.697 390.603 179.681C385.71 174.664 369.851 168.427 351.553 175.79C340.814 191.03 290.387 206.73 290.387 206.73Z"
        fill="#E1ECFF" />
    <g style="mix-blend-mode:multiply">
        <path
            d="M285.922 212.042C285.922 212.042 307.994 219.125 332.841 209.527C357.687 199.93 362.189 172.896 362.189 172.896L351.541 175.794L290.387 206.73L285.922 212.042Z"
            fill="#E1ECFF" />
    </g>
    <path
        d="M375.777 294.965C375.777 294.965 403.685 295.145 411.526 297.148C419.368 299.151 440.124 346.126 448.712 350.624C457.3 355.121 464.595 347.651 474.057 342.104C483.519 336.557 492.191 329.844 492.463 327.043C492.734 324.241 488.715 313.047 485.239 310.788C481.763 308.53 471.671 308.37 466.287 311.818C458.378 290.268 447.132 258.841 436.82 254.515C426.508 250.189 395.256 248.13 395.256 248.13L375.777 294.965Z"
        fill="#E1ECFF" />
    <g style="mix-blend-mode:multiply" opacity="0.51">
        <path
            d="M405.133 274.397C405.133 274.397 427.856 276.883 434.134 285.339C440.411 293.796 452.85 345.54 466.774 346.765C466.998 363.526 438.16 369.58 438.16 369.58L369.037 292.774L405.133 274.397Z"
            fill="#E1ECFF" />
    </g>
    <path
        d="M300.799 290.727C300.799 290.727 317.96 326.719 333.523 336.537C349.087 346.354 377.286 345.56 385.064 351.989C392.842 358.418 391.198 389.302 398.972 397.483C406.745 405.664 417.684 410.677 427.908 409.755C438.133 408.833 446.314 403.928 446.417 399.327C446.521 394.726 446.11 390.735 441.305 388.281C436.5 385.826 429.732 383.783 429.441 380.922C429.15 378.06 423.714 334.497 421.459 322.657C419.205 310.816 401.693 294.347 379.126 286.05C357.755 268.155 324.931 275.822 324.931 275.822L300.799 290.727Z"
        fill="#E1ECFF" />
    <g style="mix-blend-mode:multiply">
        <path
            d="M305.792 300.357C305.792 300.357 325.486 301.362 343.173 293.592C339.793 275.594 329.365 270.278 329.365 270.278L300.799 290.727L305.792 300.357Z"
            fill="#E1ECFF" />
    </g>
    <path
        d="M333.044 112.397C317.62 104.14 285.295 101.354 265.341 126.101C245.388 150.847 255.333 176.512 263.717 188.46C272.497 200.999 302.675 220.163 334.884 202.164C367.093 184.166 370.469 132.438 333.044 112.397Z"
        fill="#E1ECFF" />
    <path
        d="M330.391 127.53C344.091 130.802 352.99 150.025 348.389 168.431C343.788 186.836 327.936 199.211 310.146 199.311C292.355 199.411 274.664 187.263 274.76 164.548C274.855 142.718 300.64 120.426 330.391 127.53Z"
        fill="#1C3177" />
    <g style="mix-blend-mode:multiply">
        <path
            d="M290.918 271.3C308.769 263.015 295.416 244.099 313.211 239.797C336.672 243.133 343.161 241.936 343.161 241.936C343.161 241.936 298.277 281.357 290.918 271.3Z"
            fill="#E1ECFF" />
    </g>
    <path
        d="M305.792 220.705L335.499 297.148L377.525 296.146L415.972 271.811L427.425 237.043L399.614 153.605L386.113 192.666L351.142 220.478L305.792 220.705Z"
        fill="#FF97C9" />
    <path
        d="M290.918 271.3C300.767 270.502 305.784 264.089 308.769 261.243C310.289 259.791 309.986 258.518 309.22 254.327C308.454 250.137 311.111 245.839 314.743 243.999C316.738 249.367 319.189 250.384 321.08 250.133C322.972 249.882 324.915 238.58 331.101 238.68C337.287 238.779 342.247 246.964 343.073 251.051C343.899 255.137 339.905 266.794 334.892 274.975C329.88 283.156 322.808 293.285 306.889 296.454C290.97 299.622 281.919 291.493 276.703 281.217C274.943 277.749 274.309 272.956 274.365 267.616C274.365 267.616 277.928 272.322 290.918 271.3Z"
        fill="#E1ECFF" />
    <path
        d="M409.192 182.342C409.192 182.342 411.087 188.508 409.81 190.911C408.533 193.313 406.793 195.3 405.516 198.377C404.239 201.454 406.131 213.051 411.754 215.042C417.377 217.034 422.03 211.822 423.515 208.805C424.999 205.788 424.177 197.866 421.978 192.343C419.779 186.82 415.645 181.911 409.192 182.342Z"
        fill="#E1ECFF" />
    <path
        d="M415.657 105.736L416.918 108.29C416.993 108.445 417.105 108.579 417.245 108.68C417.384 108.782 417.545 108.848 417.716 108.873L420.537 109.272C420.735 109.3 420.92 109.383 421.072 109.511C421.225 109.64 421.338 109.808 421.4 109.998C421.461 110.187 421.468 110.39 421.42 110.584C421.372 110.777 421.271 110.953 421.128 111.092L419.089 113.087C418.965 113.207 418.872 113.356 418.818 113.52C418.765 113.684 418.752 113.859 418.781 114.029L419.26 116.822C419.294 117.018 419.273 117.22 419.198 117.404C419.123 117.588 418.999 117.748 418.838 117.865C418.677 117.982 418.487 118.052 418.289 118.067C418.09 118.081 417.892 118.04 417.716 117.948L415.19 116.623C415.037 116.542 414.867 116.5 414.695 116.5C414.522 116.5 414.352 116.542 414.2 116.623L411.674 117.948C411.498 118.041 411.299 118.083 411.1 118.069C410.901 118.055 410.71 117.985 410.549 117.868C410.387 117.751 410.262 117.591 410.187 117.406C410.112 117.221 410.091 117.019 410.125 116.822L410.608 114.029C410.638 113.859 410.625 113.684 410.571 113.52C410.518 113.356 410.425 113.207 410.301 113.087L408.262 111.092C408.119 110.953 408.017 110.777 407.969 110.584C407.921 110.39 407.929 110.187 407.99 109.998C408.052 109.808 408.165 109.64 408.317 109.511C408.47 109.383 408.655 109.3 408.852 109.272L411.674 108.873C411.844 108.848 412.006 108.782 412.145 108.68C412.284 108.579 412.397 108.445 412.472 108.29L413.733 105.736C413.821 105.556 413.958 105.404 414.128 105.297C414.298 105.191 414.494 105.134 414.695 105.134C414.895 105.134 415.092 105.191 415.262 105.297C415.432 105.404 415.569 105.556 415.657 105.736V105.736Z"
        fill="#FEC272" />
    <path
        d="M280.642 376.025L281.699 378.168C281.762 378.298 281.857 378.411 281.974 378.496C282.091 378.581 282.227 378.635 282.37 378.655L284.736 378.998C284.901 379.022 285.056 379.092 285.184 379.2C285.311 379.307 285.406 379.448 285.457 379.607C285.509 379.765 285.515 379.935 285.475 380.097C285.435 380.259 285.351 380.406 285.231 380.523L283.519 382.191C283.414 382.292 283.336 382.419 283.291 382.558C283.247 382.697 283.237 382.845 283.264 382.989L283.663 385.344C283.69 385.508 283.671 385.676 283.608 385.831C283.545 385.985 283.441 386.119 283.306 386.217C283.172 386.315 283.012 386.374 282.846 386.386C282.68 386.399 282.514 386.366 282.366 386.289L280.251 385.176C280.123 385.109 279.98 385.074 279.836 385.074C279.691 385.074 279.549 385.109 279.421 385.176L277.314 386.281C277.166 386.359 276.999 386.394 276.832 386.382C276.665 386.37 276.505 386.311 276.37 386.213C276.235 386.114 276.13 385.98 276.068 385.825C276.005 385.67 275.988 385.5 276.017 385.336L276.416 382.981C276.44 382.837 276.43 382.689 276.384 382.55C276.339 382.411 276.261 382.285 276.156 382.183L274.448 380.515C274.329 380.398 274.244 380.251 274.205 380.089C274.165 379.927 274.171 379.757 274.222 379.599C274.274 379.44 274.368 379.299 274.496 379.192C274.623 379.084 274.778 379.014 274.943 378.99L277.306 378.647C277.449 378.627 277.586 378.572 277.703 378.487C277.821 378.402 277.916 378.29 277.98 378.16L279.038 376.017C279.112 375.868 279.227 375.742 279.369 375.654C279.511 375.567 279.675 375.521 279.842 375.522C280.009 375.523 280.173 375.57 280.314 375.659C280.455 375.748 280.569 375.875 280.642 376.025V376.025Z"
        fill="#FEC272" />
    <g style="mix-blend-mode:soft-light" opacity="0.48">
        <path
            d="M318.431 150.476C328.253 148.311 335.594 143.74 334.828 140.266C334.062 136.792 325.48 135.731 315.659 137.896C305.837 140.06 298.496 144.631 299.262 148.105C300.028 151.579 308.61 152.64 318.431 150.476Z"
            fill="white" />
    </g>
    <g style="mix-blend-mode:multiply">
        <path
            d="M340.799 262.512C340.799 262.512 329.501 252.416 327.454 252.416C325.406 252.416 319.955 260.397 321.184 262.512C322.413 264.627 328.727 271.555 335.658 273.686C337.905 269.4 340.799 262.512 340.799 262.512Z"
            fill="#E1ECFF" />
    </g>
    <g style="mix-blend-mode:multiply" opacity="0.5">
        <path d="M351.143 220.478L377.525 296.146L415.972 271.811L386.113 192.666L351.143 220.478Z" fill="#FF97C9" />
    </g>
    <g style="mix-blend-mode:multiply">
        <path
            d="M423.722 337.111C419.768 340.387 415.324 343.023 410.553 344.921C406.079 346.645 404.567 350.173 405.919 356.646C407.272 363.119 408.031 373.212 410.824 375.869C413.618 378.527 423.227 377.115 428.208 370.937C426.647 358.765 423.722 337.111 423.722 337.111Z"
            fill="#E1ECFF" />
    </g>
    <g style="mix-blend-mode:multiply">
        <path
            d="M449.761 271.116C449.761 271.116 444.174 273.551 444.705 277.434C445.236 281.317 450.943 300.085 453.194 301.777C455.444 303.469 462.105 300.468 462.105 300.468C455.265 281.089 449.761 271.116 449.761 271.116Z"
            fill="#E1ECFF" />
    </g>
    <path
        d="M213.989 316.028C209.547 306.818 224.021 296.96 236.337 297.671C248.652 298.381 253.828 309.751 258.19 313.993C267.301 322.844 267.014 331.504 260.704 335.228C254.395 338.951 219.867 328.212 213.989 316.028Z"
        fill="#99ADF9" />
    <path
        d="M462.436 173.339C458.844 170.195 462.54 155.413 471.024 151.953C479.508 148.493 490.044 152.276 492.295 158.206C494.546 164.137 469.799 179.78 462.436 173.339Z"
        fill="#99ADF9" />
    <path
        d="M504.012 181.249C502.172 183.871 500.947 191.338 504.83 192.666C508.713 193.995 511.65 186.313 510.285 182.314C508.92 178.316 505.241 179.497 504.012 181.249Z"
        fill="#99ADF9" />
    <path opacity="0.44"
        d="M506.805 120.658C503.908 122.022 499.131 127.889 501.845 130.974C504.558 134.058 510.916 128.846 511.718 124.7C512.52 120.554 508.741 119.748 506.805 120.658Z"
        fill="#99ADF9" />
    <path opacity="0.44"
        d="M234.365 354.782C231.859 352.787 224.488 351.091 222.916 354.886C221.343 358.681 228.83 362.069 232.893 360.976C236.955 359.882 236.033 356.115 234.365 354.782Z"
        fill="#99ADF9" />
    <g style="mix-blend-mode:multiply" opacity="0.64">
        <path
            d="M256.007 311.467C251.549 312.305 252.268 316.292 253.696 319.903C255.125 323.515 260.153 324.544 263.701 321.244C261.399 315.765 256.007 311.467 256.007 311.467Z"
            fill="#99ADF9" />
    </g>
    <g style="mix-blend-mode:multiply" opacity="0.64">
        <path
            d="M230.383 305.453C227.19 305.808 224.588 310.429 226.839 314.177C229.09 317.924 233.38 320.653 235.834 319.632C238.288 318.61 238.699 313.087 236.927 309.543C235.156 305.999 233.452 305.11 230.383 305.453Z"
            fill="#99ADF9" />
    </g>
    <g style="mix-blend-mode:multiply" opacity="0.64">
        <path
            d="M482.334 155.137C480.582 155.696 478.806 157.592 478.962 159.639C479.118 161.686 480.905 163.474 482.845 163.231C484.784 162.987 486.437 159.855 486.038 157.604C485.638 155.353 483.671 154.714 482.334 155.137Z"
            fill="#99ADF9" />
    </g>
    <g style="mix-blend-mode:multiply" opacity="0.64">
        <path
            d="M463.781 159.128C463.781 159.128 466.175 161.523 465.776 164.24C465.377 166.958 461.251 166.707 461.251 166.707C461.251 166.707 461.866 162.073 463.781 159.128Z"
            fill="#99ADF9" />
    </g>
</svg>