<svg xmlns="http://www.w3.org/2000/svg" width="801" height="800" fill="none" viewBox="0 0 801 800"><ellipse cx="400.5" cy="400" fill="#CD5858" rx="400.5" ry="400"/><path fill="#e9c4b8" d="M241.477 523.597C248.277 541.597 253.479 564.958 268.977 587.097C283.627 608.025 295.114 617.854 315.977 632.597C363.63 666.269 460.477 670.597 460.477 670.597C476.098 669.035 485.682 671.848 500.477 666.597C523.171 658.542 535.792 647.423 546.977 626.097C562.5 596.5 562.598 597.209 567.977 577.097C587.5 504.097 583.144 442.097 582.977 392.597C580.177 360.997 567.977 315.597 567.977 315.597C567.977 315.597 558.677 272.997 555.477 258.597C552.277 244.197 538.477 223.263 531.977 214.597C512.777 175.397 440.977 139.597 418.477 134.097C395.977 128.597 401.377 128.397 346.977 129.597C292.577 130.797 241.31 175.097 222.477 197.097C177.677 225.497 184.355 329.597 193.293 378.097C183.281 373.155 178.001 375.741 176.477 378.097C149.477 406.097 187.477 471.597 199.977 485.097C209.977 495.897 205.977 495.097 222.977 504.097C221.977 504.597 234.677 505.597 241.477 523.597Z"/><path fill="#000" d="M268.977 587.097L271.844 585.09L268.977 587.097ZM222.977 504.097L224.542 507.227C225.715 506.641 226.462 505.448 226.477 504.137C226.492 502.826 225.773 501.617 224.615 501.003L222.977 504.097ZM199.977 485.097L197.409 487.475H197.409L199.977 485.097ZM176.477 378.097L178.996 380.526L179.232 380.282L179.415 379.998L176.477 378.097ZM193.293 378.097L191.744 381.235L193.293 378.097ZM197.981 384.972C199.568 386.074 201.749 385.681 202.852 384.093C203.954 382.505 203.561 380.324 201.973 379.222L197.981 384.972ZM222.477 197.097L224.351 200.053L224.794 199.772L225.136 199.373L222.477 197.097ZM346.977 129.597L347.054 133.096L346.977 129.597ZM418.477 134.097L419.308 130.697L418.477 134.097ZM531.977 214.597L528.834 216.136L528.979 216.433L529.177 216.697L531.977 214.597ZM555.477 258.597L552.06 259.356L555.477 258.597ZM567.977 315.597L564.558 316.343L564.575 316.425L564.597 316.505L567.977 315.597ZM582.977 392.597L586.477 392.585L586.476 392.436L586.463 392.288L582.977 392.597ZM567.977 577.097L571.358 578.001L567.977 577.097ZM546.977 626.097L550.077 627.722L546.977 626.097ZM500.477 666.597L501.648 669.895H501.648L500.477 666.597ZM460.477 670.597L460.321 674.093L460.574 674.104L460.825 674.079L460.477 670.597ZM315.977 632.597L313.957 635.455L315.977 632.597ZM271.844 585.09C256.682 563.43 251.762 540.917 244.751 522.36L238.203 524.834C244.792 542.276 250.277 566.486 266.11 589.104L271.844 585.09ZM244.751 522.36C241.081 512.645 235.72 507.313 231.224 504.359C228.998 502.897 227.047 502.058 225.747 501.557C224.938 501.246 224.796 501.211 224.552 501.109C224.529 501.1 224.585 501.122 224.677 501.17C224.715 501.19 225.05 501.361 225.402 501.708C225.696 501.998 226.834 503.275 226.277 505.144C225.838 506.622 224.644 507.176 224.542 507.227L221.412 500.966C221.247 501.048 220.018 501.635 219.568 503.147C219.002 505.05 220.154 506.364 220.488 506.693C220.88 507.079 221.279 507.292 221.404 507.358C221.584 507.453 221.75 507.525 221.86 507.571C222.146 507.69 222.884 507.956 223.232 508.089C224.244 508.479 225.706 509.109 227.38 510.209C230.684 512.38 235.073 516.549 238.203 524.834L244.751 522.36ZM224.615 501.003C216.06 496.475 213.243 494.631 211.273 492.744C210.269 491.782 209.439 490.766 208.107 489.139C206.794 487.535 205.117 485.496 202.545 482.719L197.409 487.475C199.837 490.097 201.41 492.008 202.69 493.573C203.952 495.115 205.06 496.486 206.431 497.799C209.211 500.462 212.894 502.719 221.339 507.19L224.615 501.003ZM202.545 482.719C196.681 476.385 184.275 457.073 176.711 435.859C172.942 425.287 170.463 414.478 170.5 404.743C170.537 395.034 173.064 386.678 178.996 380.526L173.958 375.667C166.39 383.515 163.542 393.847 163.5 404.716C163.459 415.56 166.199 427.219 170.118 438.21C177.929 460.12 190.773 480.308 197.409 487.475L202.545 482.719ZM179.415 379.998C179.503 379.863 182.401 376.624 191.744 381.235L194.842 374.958C184.161 369.686 176.499 371.62 173.539 376.195L179.415 379.998ZM191.744 381.235C193.599 382.151 195.676 383.371 197.981 384.972L201.973 379.222C199.423 377.451 197.048 376.047 194.842 374.958L191.744 381.235ZM196.735 377.462C192.305 353.425 188.439 315.591 191.222 280.335C192.614 262.707 195.657 245.876 201.03 231.786C206.409 217.682 214.014 206.606 224.351 200.053L220.603 194.141C208.54 201.787 200.179 214.374 194.49 229.292C188.795 244.224 185.666 261.774 184.244 279.784C181.401 315.803 185.343 354.268 189.851 378.731L196.735 377.462ZM225.136 199.373C234.34 188.621 251.605 172.279 273.268 158.5C294.954 144.706 320.739 133.676 347.054 133.096L346.9 126.098C318.815 126.717 291.767 138.437 269.511 152.594C247.232 166.765 229.447 183.572 219.818 194.821L225.136 199.373ZM347.054 133.096C374.354 132.494 386.386 132.253 394.441 132.825C402.324 133.386 406.205 134.7 417.646 137.497L419.308 130.697C408.249 127.994 403.58 126.458 394.938 125.843C386.468 125.241 374 125.5 346.9 126.098L347.054 133.096ZM417.646 137.497C428.387 140.122 451.603 150.237 474.604 164.674C497.679 179.156 519.691 197.471 528.834 216.136L535.12 213.057C525.063 192.523 501.575 173.337 478.325 158.745C455.001 144.106 431.067 133.571 419.308 130.697L417.646 137.497ZM529.177 216.697C532.35 220.927 537.345 228.208 541.93 236.19C546.555 244.242 550.58 252.696 552.06 259.356L558.894 257.837C557.174 250.097 552.699 240.884 547.999 232.703C543.259 224.452 538.104 216.933 534.777 212.497L529.177 216.697ZM552.06 259.356C553.659 266.549 556.783 280.794 559.508 293.245C560.87 299.47 562.133 305.244 563.055 309.463C563.515 311.572 563.891 313.292 564.152 314.485C564.282 315.081 564.383 315.546 564.452 315.861C564.487 316.019 564.513 316.14 564.531 316.221C564.54 316.261 564.546 316.292 564.551 316.312C564.553 316.323 564.555 316.33 564.556 316.335C564.556 316.338 564.557 316.34 564.557 316.341C564.557 316.342 564.557 316.342 564.557 316.343C564.557 316.343 564.558 316.343 567.977 315.597C571.396 314.85 571.396 314.85 571.396 314.85C571.396 314.849 571.396 314.849 571.396 314.848C571.396 314.847 571.395 314.845 571.395 314.842C571.394 314.837 571.392 314.83 571.39 314.819C571.385 314.799 571.379 314.768 571.37 314.727C571.352 314.646 571.326 314.526 571.291 314.368C571.222 314.053 571.121 313.588 570.991 312.991C570.73 311.798 570.354 310.078 569.893 307.968C568.971 303.749 567.709 297.974 566.346 291.748C563.621 279.3 560.495 265.044 558.894 257.837L552.06 259.356ZM567.977 315.597C564.597 316.505 564.597 316.505 564.597 316.505C564.597 316.505 564.597 316.506 564.597 316.506C564.598 316.507 564.598 316.509 564.599 316.512C564.6 316.517 564.602 316.524 564.605 316.535C564.611 316.556 564.619 316.588 564.63 316.63C564.653 316.715 564.687 316.842 564.731 317.01C564.82 317.345 564.951 317.844 565.119 318.491C565.456 319.784 565.941 321.67 566.531 324.033C567.713 328.76 569.318 335.392 571.01 343.006C574.403 358.271 578.111 377.34 579.491 392.906L586.463 392.288C585.043 376.253 581.251 356.822 577.844 341.487C576.136 333.801 574.516 327.108 573.322 322.335C572.726 319.949 572.236 318.041 571.894 316.728C571.723 316.071 571.589 315.564 571.498 315.219C571.453 315.047 571.418 314.915 571.394 314.826C571.382 314.781 571.373 314.748 571.367 314.725C571.364 314.713 571.361 314.704 571.36 314.698C571.359 314.695 571.358 314.693 571.358 314.691C571.358 314.69 571.357 314.69 571.357 314.689C571.357 314.689 571.357 314.688 567.977 315.597ZM579.477 392.608C579.644 442.333 583.968 503.755 564.596 576.192L571.358 578.001C591.032 504.438 586.643 441.86 586.477 392.585L579.477 392.608ZM564.596 576.192C561.902 586.264 560.592 590.875 558.074 596.639C555.502 602.526 551.689 609.577 543.877 624.471L550.077 627.722C557.788 613.019 561.786 605.627 564.488 599.441C567.245 593.132 568.673 588.041 571.358 578.001L564.596 576.192ZM543.877 624.471C538.423 634.872 532.716 642.597 525.741 648.687C518.768 654.775 510.36 659.375 499.306 663.298L501.648 669.895C513.288 665.763 522.538 660.776 530.345 653.96C538.15 647.145 544.346 638.648 550.077 627.722L543.877 624.471ZM499.306 663.298C492.375 665.758 486.679 666.338 480.703 666.481C474.808 666.622 468.106 666.316 460.129 667.114L460.825 674.079C468.469 673.315 474.369 673.635 480.871 673.479C487.291 673.325 493.784 672.686 501.648 669.895L499.306 663.298ZM460.477 670.597C460.633 667.1 460.633 667.1 460.633 667.1C460.633 667.1 460.632 667.1 460.631 667.1C460.629 667.1 460.625 667.1 460.62 667.099C460.61 667.099 460.594 667.098 460.572 667.097C460.528 667.095 460.461 667.092 460.372 667.088C460.194 667.079 459.925 667.065 459.571 667.045C458.863 667.006 457.813 666.944 456.457 666.853C453.744 666.671 449.807 666.373 444.931 665.91C435.174 664.985 421.673 663.402 406.701 660.777C376.602 655.498 341.146 646.096 317.997 629.738L313.957 635.455C338.461 652.77 375.255 662.368 405.492 667.671C420.689 670.336 434.378 671.941 444.27 672.879C449.217 673.348 453.218 673.651 455.988 673.837C457.373 673.93 458.45 673.994 459.184 674.034C459.551 674.055 459.832 674.069 460.023 674.079C460.119 674.084 460.192 674.087 460.241 674.089C460.266 674.091 460.285 674.091 460.299 674.092C460.305 674.092 460.31 674.093 460.314 674.093C460.316 674.093 460.318 674.093 460.319 674.093C460.32 674.093 460.321 674.093 460.477 670.597ZM317.997 629.738C297.337 615.14 286.189 605.581 271.844 585.09L266.11 589.104C281.066 610.469 292.89 620.569 313.957 635.455L317.997 629.738Z"/><path fill="#C1A8A0" fill-opacity=".73" d="M211.5 385.5C214.5 387 230.477 406.43 233.977 418.097L248.977 414.597C243.977 382.93 233.977 314.897 233.977 296.097C233.977 277.297 238.644 261.93 240.977 256.597C255.477 216.597 307.477 172.597 315.977 172.597C324.477 172.597 328.977 180.597 343.977 189.597C358.977 198.597 350.577 202.897 388.977 208.097C427.377 213.297 416.977 170.097 429.977 163.597C442.977 157.097 529.8 217.1 519 201.5C505.5 182 477.977 163.597 457.977 151.597C441.977 141.997 415.31 135.263 403.977 133.097C369.177 130.697 341.81 133.097 332.477 134.597C326.644 135.43 308.5 137.597 282.5 151.597C250 169.097 239.5 186.5 218.5 204.5C197.5 222.5 193.046 257.539 191 282.5C188.5 313 192.5 357.5 196.5 376C199 377 206.285 382.892 211.5 385.5Z"/><path stroke="#000" stroke-linecap="round" stroke-linejoin="round" stroke-opacity=".45" stroke-width="7" d="M295.977 360.597L336.977 336.597L422.977 347.097M493.477 336.597L543.977 312.097L553.977 318.097"/><path fill="#4B3535" fill-opacity=".45" d="M277.477 499.597C254.277 493.197 250.667 436.333 249 414.5L234 418C234 418 239.5 501 246.5 526.5C253.5 552 262.333 570.5 272 585C288.5 609.75 297 613.5 319.5 631C336.803 644.458 401.977 665.5 461 667C485 667.61 495.809 665.24 505.5 661C521.5 654 529.5 645 530 644.5C532.209 642.291 547 627 561.5 587C565.306 576.5 568.82 558.873 572.5 541C576.412 522 579.5 486.5 579.5 466C574.333 481.5 568.677 512.497 563.477 518.097C556.977 525.097 558.477 507.597 546.977 501.597C537.777 496.797 527.144 493.93 522.977 493.097C515.377 484.297 508.81 481.763 506.477 481.597C499.977 484.577 489.977 492.35 501.977 499.597C516.977 508.655 538.477 515.097 546.977 518.097C555.477 521.097 551.477 540.097 547.977 567.097C545.177 588.697 506.477 599.5 479.477 606.097C443 610.5 438.662 609.849 433.477 606.097C414 592 413.477 586.597 401.977 574.097C392.777 564.097 392.81 558.93 393.977 557.597C395.477 556.763 399.877 552.597 405.477 542.597C411.077 532.597 420.144 529.43 423.977 529.097L479.477 507.597C481.644 507.263 486.177 503.897 486.977 493.097C487.777 482.297 478.977 483.263 474.477 485.097C451.977 496.597 398.877 525.497 388.477 529.097C378.077 532.697 362.477 536.597 358.477 533.597L319.477 518.097L277.477 499.597Z"/><path stroke="#BDA096" stroke-opacity=".85" stroke-width="7" d="M446.933 377.388C448.975 383.661 445.051 412.605 442.834 426.293C436.803 433.231 424.682 449.115 424.442 457.151C424.202 465.188 427.793 471.619 429.618 473.831C432.429 475.806 438.757 479.808 441.578 480.012C444.399 480.215 448.453 480.366 450.127 480.416C452.146 480.609 456.233 480.29 456.437 477.469C456.692 473.943 446.287 475.673 445.938 470.685C445.659 466.694 449.177 464.444 450.971 463.817C455.924 462.969 467.083 461.989 472.095 464.846C477.106 467.703 483.014 468.092 485.342 467.929C486.873 468.323 491.455 467.903 497.533 463.067C503.61 458.231 506.413 456.264 507.055 455.885C504.067 460.939 498.889 470.992 502.081 470.769C506.071 470.49 510.78 466.151 514.491 461.881C517.46 458.466 516.314 449.724 515.37 445.781C515.277 444.451 514.223 440.849 510.752 437.082C506.413 432.373 502.887 432.118 493.106 421.274C485.282 412.599 478.892 390.023 476.675 379.819"/><circle cx="369.477" cy="377.597" r="12.5" fill="#020202"/><circle cx="520.477" cy="358.597" r="12.5" fill="#020202"/><path stroke="#CA9292" stroke-linecap="round" stroke-width="10" d="M427 540.299C435.139 540.387 463.126 544.143 480.32 540.299C497.514 536.455 518.224 523.799 524.5 521"/></svg>