<svg xmlns="http://www.w3.org/2000/svg" width="383" height="383" fill="none" viewBox="0 0 383 383"><path fill="url(#paint0_radial)" d="M161.5 17.3205C180.064 6.60254 202.936 6.60254 221.5 17.3205L327.344 78.4295C345.908 89.1475 357.344 108.955 357.344 130.391V252.609C357.344 274.045 345.908 293.853 327.344 304.57L221.5 365.68C202.936 376.397 180.064 376.397 161.5 365.68L55.6561 304.57C37.0921 293.853 25.6561 274.045 25.6561 252.609V130.391C25.6561 108.955 37.0921 89.1475 55.6561 78.4295L161.5 17.3205Z"/><path fill="#fff" d="M144.8 121V152.2H88.4V177H130V206.8H88.4V262H49.2V121H144.8ZM329.909 121L295.309 262H247.109L227.709 175.6L207.909 262H159.709L125.509 121H167.909L184.309 217.4L206.509 121H249.509L271.109 216.6L287.509 121H329.909Z"/><defs><radialGradient id="paint0_radial" cx="0" cy="0" r="1" gradientTransform="translate(188.5 199.5) rotate(-149.228) scale(179.817)" gradientUnits="userSpaceOnUse"><stop offset=".057" stop-color="#457FEF"/><stop offset="1" stop-color="#384C80"/></radialGradient></defs></svg>