<svg xmlns="http://www.w3.org/2000/svg" width="1440" height="1024" fill="none" viewBox="0 0 1440 1024"><rect width="1440" height="1024" fill="url(#paint0_radial)"/><rect width="803" height="128" x="318" y="448" fill="#000"/><path fill="#fff" d="M415.136 526.865V518.033L435.36 489.105H447.584V517.393H452.832V526.865H447.584V535.185H436.64V526.865H415.136ZM437.408 501.137L426.656 517.393H437.408V501.137ZM458.193 511.185C458.193 503.846 459.601 498.065 462.417 493.841C465.275 489.617 469.862 487.505 476.177 487.505C482.491 487.505 487.057 489.617 489.873 493.841C492.731 498.065 494.161 503.846 494.161 511.185C494.161 518.609 492.731 524.433 489.873 528.657C487.057 532.881 482.491 534.993 476.177 534.993C469.862 534.993 465.275 532.881 462.417 528.657C459.601 524.433 458.193 518.609 458.193 511.185ZM483.409 511.185C483.409 506.875 482.939 503.569 482.001 501.265C481.062 498.918 479.121 497.745 476.177 497.745C473.233 497.745 471.291 498.918 470.353 501.265C469.414 503.569 468.945 506.875 468.945 511.185C468.945 514.086 469.115 516.497 469.457 518.417C469.798 520.294 470.481 521.83 471.505 523.025C472.571 524.177 474.129 524.753 476.177 524.753C478.225 524.753 479.761 524.177 480.785 523.025C481.851 521.83 482.555 520.294 482.897 518.417C483.238 516.497 483.409 514.086 483.409 511.185ZM500.199 526.865V518.033L520.423 489.105H532.647V517.393H537.895V526.865H532.647V535.185H521.703V526.865H500.199ZM522.471 501.137L511.719 517.393H522.471V501.137ZM549.463 535.697C547.543 535.697 545.964 535.142 544.727 534.033C543.532 532.881 542.935 531.473 542.935 529.809C542.935 528.102 543.532 526.673 544.727 525.521C545.964 524.369 547.543 523.793 549.463 523.793C551.34 523.793 552.876 524.369 554.071 525.521C555.308 526.673 555.927 528.102 555.927 529.809C555.927 531.473 555.308 532.881 554.071 534.033C552.876 535.142 551.34 535.697 549.463 535.697ZM549.463 509.649C547.543 509.649 545.964 509.094 544.727 507.985C543.532 506.833 542.935 505.425 542.935 503.761C542.935 502.054 543.532 500.625 544.727 499.473C545.964 498.321 547.543 497.745 549.463 497.745C551.34 497.745 552.876 498.321 554.071 499.473C555.308 500.625 555.927 502.054 555.927 503.761C555.927 505.425 555.308 506.833 554.071 507.985C552.876 509.094 551.34 509.649 549.463 509.649ZM605.341 490.257V499.025H587.037V508.497H600.733V517.009H587.037V535.185H576.093V490.257H605.341ZM627.349 535.697C623.85 535.697 620.693 534.95 617.877 533.457C615.104 531.963 612.906 529.83 611.285 527.057C609.706 524.283 608.917 521.041 608.917 517.329C608.917 513.659 609.728 510.438 611.349 507.665C612.97 504.849 615.189 502.694 618.005 501.201C620.821 499.707 623.978 498.961 627.477 498.961C630.976 498.961 634.133 499.707 636.949 501.201C639.765 502.694 641.984 504.849 643.605 507.665C645.226 510.438 646.037 513.659 646.037 517.329C646.037 520.998 645.205 524.241 643.541 527.057C641.92 529.83 639.68 531.963 636.821 533.457C634.005 534.95 630.848 535.697 627.349 535.697ZM627.349 526.225C629.44 526.225 631.21 525.457 632.661 523.921C634.154 522.385 634.901 520.187 634.901 517.329C634.901 514.47 634.176 512.273 632.725 510.737C631.317 509.201 629.568 508.433 627.477 508.433C625.344 508.433 623.573 509.201 622.165 510.737C620.757 512.23 620.053 514.427 620.053 517.329C620.053 520.187 620.736 522.385 622.101 523.921C623.509 525.457 625.258 526.225 627.349 526.225ZM662.787 505.425C664.067 503.462 665.667 501.926 667.587 500.817C669.507 499.665 671.64 499.089 673.987 499.089V510.673H670.979C668.248 510.673 666.2 511.27 664.835 512.465C663.47 513.617 662.787 515.665 662.787 518.609V535.185H651.843V499.473H662.787V505.425ZM692.786 498.961C695.303 498.961 697.501 499.473 699.378 500.497C701.298 501.521 702.77 502.865 703.794 504.529V499.473H714.738V535.121C714.738 538.406 714.077 541.371 712.754 544.017C711.474 546.705 709.49 548.838 706.802 550.417C704.157 551.995 700.85 552.785 696.882 552.785C691.591 552.785 687.303 551.526 684.018 549.009C680.733 546.534 678.855 543.163 678.386 538.897H689.202C689.543 540.262 690.354 541.329 691.634 542.097C692.914 542.907 694.493 543.313 696.37 543.313C698.631 543.313 700.423 542.651 701.746 541.329C703.111 540.049 703.794 537.979 703.794 535.121V530.065C702.727 531.729 701.255 533.094 699.378 534.161C697.501 535.185 695.303 535.697 692.786 535.697C689.842 535.697 687.175 534.95 684.786 533.457C682.397 531.921 680.498 529.766 679.09 526.993C677.725 524.177 677.042 520.934 677.042 517.265C677.042 513.595 677.725 510.374 679.09 507.601C680.498 504.827 682.397 502.694 684.786 501.201C687.175 499.707 689.842 498.961 692.786 498.961ZM703.794 517.329C703.794 514.598 703.026 512.443 701.49 510.865C699.997 509.286 698.162 508.497 695.986 508.497C693.81 508.497 691.954 509.286 690.418 510.865C688.925 512.401 688.178 514.534 688.178 517.265C688.178 519.995 688.925 522.171 690.418 523.793C691.954 525.371 693.81 526.161 695.986 526.161C698.162 526.161 699.997 525.371 701.49 523.793C703.026 522.214 703.794 520.059 703.794 517.329ZM738.912 535.697C735.413 535.697 732.256 534.95 729.44 533.457C726.666 531.963 724.469 529.83 722.848 527.057C721.269 524.283 720.48 521.041 720.48 517.329C720.48 513.659 721.29 510.438 722.911 507.665C724.533 504.849 726.752 502.694 729.568 501.201C732.384 499.707 735.541 498.961 739.04 498.961C742.538 498.961 745.696 499.707 748.512 501.201C751.328 502.694 753.546 504.849 755.168 507.665C756.789 510.438 757.6 513.659 757.6 517.329C757.6 520.998 756.768 524.241 755.104 527.057C753.482 529.83 751.242 531.963 748.384 533.457C745.568 534.95 742.41 535.697 738.912 535.697ZM738.912 526.225C741.002 526.225 742.773 525.457 744.224 523.921C745.717 522.385 746.464 520.187 746.464 517.329C746.464 514.47 745.738 512.273 744.288 510.737C742.88 509.201 741.13 508.433 739.04 508.433C736.906 508.433 735.136 509.201 733.728 510.737C732.32 512.23 731.616 514.427 731.616 517.329C731.616 520.187 732.298 522.385 733.664 523.921C735.072 525.457 736.821 526.225 738.912 526.225ZM783.31 525.905V535.185H777.742C773.774 535.185 770.68 534.225 768.462 532.305C766.243 530.342 765.134 527.163 765.134 522.769V508.561H760.782V499.473H765.134V490.769H776.078V499.473H783.246V508.561H776.078V522.897C776.078 523.963 776.334 524.731 776.846 525.201C777.358 525.67 778.211 525.905 779.406 525.905H783.31ZM827.475 490.257V535.185H816.531V490.257H827.475ZM880.974 499.089C885.411 499.089 888.931 500.433 891.534 503.121C894.179 505.809 895.502 509.542 895.502 514.321V535.185H884.622V515.793C884.622 513.489 884.003 511.718 882.766 510.481C881.571 509.201 879.907 508.561 877.774 508.561C875.64 508.561 873.955 509.201 872.718 510.481C871.523 511.718 870.926 513.489 870.926 515.793V535.185H860.046V515.793C860.046 513.489 859.427 511.718 858.19 510.481C856.995 509.201 855.331 508.561 853.198 508.561C851.064 508.561 849.379 509.201 848.142 510.481C846.947 511.718 846.35 513.489 846.35 515.793V535.185H835.406V499.473H846.35V503.953C847.459 502.459 848.91 501.286 850.702 500.433C852.494 499.537 854.52 499.089 856.782 499.089C859.47 499.089 861.859 499.665 863.95 500.817C866.083 501.969 867.747 503.611 868.942 505.745C870.179 503.782 871.864 502.182 873.998 500.945C876.131 499.707 878.456 499.089 880.974 499.089ZM900.98 517.265C900.98 513.595 901.662 510.374 903.028 507.601C904.436 504.827 906.334 502.694 908.724 501.201C911.113 499.707 913.78 498.961 916.724 498.961C919.241 498.961 921.438 499.473 923.316 500.497C925.236 501.521 926.708 502.865 927.732 504.529V499.473H938.676V535.185H927.732V530.129C926.665 531.793 925.172 533.137 923.252 534.161C921.374 535.185 919.177 535.697 916.66 535.697C913.758 535.697 911.113 534.95 908.724 533.457C906.334 531.921 904.436 529.766 903.028 526.993C901.662 524.177 900.98 520.934 900.98 517.265ZM927.732 517.329C927.732 514.598 926.964 512.443 925.428 510.865C923.934 509.286 922.1 508.497 919.924 508.497C917.748 508.497 915.892 509.286 914.356 510.865C912.862 512.401 912.116 514.534 912.116 517.265C912.116 519.995 912.862 522.171 914.356 523.793C915.892 525.371 917.748 526.161 919.924 526.161C922.1 526.161 923.934 525.371 925.428 523.793C926.964 522.214 927.732 520.059 927.732 517.329ZM960.161 498.961C962.678 498.961 964.876 499.473 966.753 500.497C968.673 501.521 970.145 502.865 971.169 504.529V499.473H982.113V535.121C982.113 538.406 981.452 541.371 980.129 544.017C978.849 546.705 976.865 548.838 974.177 550.417C971.532 551.995 968.225 552.785 964.257 552.785C958.966 552.785 954.678 551.526 951.393 549.009C948.108 546.534 946.23 543.163 945.761 538.897H956.577C956.918 540.262 957.729 541.329 959.009 542.097C960.289 542.907 961.868 543.313 963.745 543.313C966.006 543.313 967.798 542.651 969.121 541.329C970.486 540.049 971.169 537.979 971.169 535.121V530.065C970.102 531.729 968.63 533.094 966.753 534.161C964.876 535.185 962.678 535.697 960.161 535.697C957.217 535.697 954.55 534.95 952.161 533.457C949.772 531.921 947.873 529.766 946.465 526.993C945.1 524.177 944.417 520.934 944.417 517.265C944.417 513.595 945.1 510.374 946.465 507.601C947.873 504.827 949.772 502.694 952.161 501.201C954.55 499.707 957.217 498.961 960.161 498.961ZM971.169 517.329C971.169 514.598 970.401 512.443 968.865 510.865C967.372 509.286 965.537 508.497 963.361 508.497C961.185 508.497 959.329 509.286 957.793 510.865C956.3 512.401 955.553 514.534 955.553 517.265C955.553 519.995 956.3 522.171 957.793 523.793C959.329 525.371 961.185 526.161 963.361 526.161C965.537 526.161 967.372 525.371 968.865 523.793C970.401 522.214 971.169 520.059 971.169 517.329ZM1023.69 516.753C1023.69 517.777 1023.63 518.843 1023.5 519.953H998.735C998.905 522.171 999.609 523.878 1000.85 525.073C1002.13 526.225 1003.68 526.801 1005.52 526.801C1008.25 526.801 1010.15 525.649 1011.21 523.345H1022.86C1022.27 525.691 1021.18 527.803 1019.6 529.681C1018.06 531.558 1016.12 533.03 1013.77 534.097C1011.43 535.163 1008.8 535.697 1005.9 535.697C1002.4 535.697 999.289 534.95 996.559 533.457C993.828 531.963 991.695 529.83 990.159 527.057C988.623 524.283 987.855 521.041 987.855 517.329C987.855 513.617 988.601 510.374 990.095 507.601C991.631 504.827 993.764 502.694 996.495 501.201C999.225 499.707 1002.36 498.961 1005.9 498.961C1009.36 498.961 1012.43 499.686 1015.12 501.137C1017.81 502.587 1019.9 504.657 1021.39 507.345C1022.93 510.033 1023.69 513.169 1023.69 516.753ZM1012.49 513.873C1012.49 511.995 1011.85 510.502 1010.57 509.393C1009.29 508.283 1007.69 507.729 1005.77 507.729C1003.94 507.729 1002.38 508.262 1001.1 509.329C999.865 510.395 999.097 511.91 998.799 513.873H1012.49Z"/><defs><radialGradient id="paint0_radial" cx="0" cy="0" r="1" gradientTransform="translate(360 755) rotate(-24.8934) scale(1793.64 2522.31)" gradientUnits="userSpaceOnUse"><stop stop-color="#FF2E00"/><stop offset=".578" stop-color="#D68C2D"/><stop offset="1" stop-color="#CBC53D"/></radialGradient></defs></svg>