<svg xmlns="http://www.w3.org/2000/svg" width="383" height="383" fill="none" viewBox="0 0 383 383"><path fill="#fff" d="M161.5 17.3205C180.064 6.60254 202.936 6.60254 221.5 17.3205L327.344 78.4295C345.908 89.1475 357.344 108.955 357.344 130.391V252.609C357.344 274.045 345.908 293.853 327.344 304.57L221.5 365.68C202.936 376.397 180.064 376.397 161.5 365.68L55.6561 304.57C37.0921 293.853 25.6561 274.045 25.6561 252.609V130.391C25.6561 108.955 37.0921 89.1475 55.6561 78.4295L161.5 17.3205Z"/><path fill="#000" d="M47.375 265H86.8636V208.182H143.398V176.364H86.8636V151.364H149.648V119.545H47.375V265ZM171.104 265H208.888L233.604 183.75H234.74L259.456 265H297.24L340.138 119.545H296.104L276.217 209.318H275.081L251.501 119.545H216.842L193.263 209.034H192.126L172.24 119.545H128.206L171.104 265Z"/></svg>