<svg xmlns="http://www.w3.org/2000/svg" width="933.333" height="933.333" version="1" viewBox="0 0 700 700"><path d="M335 18c-9.5 1.5-17.8 3.6-23.5 6-9.8 4.1-15.1 6.9-28.9 14.8-8.7 5.1-16.1 9.2-16.4 9.2-.3 0-1.3.6-2.1 1.4-.9.7-4.1 2.7-7.1 4.3-3 1.7-12.2 7-20.5 11.8-8.2 4.8-16.8 9.7-19 10.9-2.2 1.3-14.1 8.1-26.5 15.3-12.4 7.2-24.3 14.1-26.5 15.3-2.2 1.2-6 3.4-8.5 4.9-2.5 1.6-16.9 9.9-32 18.6-15.5 8.9-31.2 18.8-36 22.6-18.8 14.8-30.7 33.3-37.7 58.5l-2.8 9.9v126c0 69.3.4 128.4.8 131.3 4.5 28.6 21.6 56.2 44.8 72.2 4.8 3.2 33.7 20.3 48.8 28.8 2.4 1.3 16.7 9.6 31.7 18.3 15.1 8.7 27.6 15.9 27.9 15.9.3 0 1.8.9 3.3 1.9 2.8 1.9 49.4 29 59.2 34.3 3 1.7 6.7 3.9 8.2 4.9 1.4 1.1 2.8 1.9 3.1 1.9.3 0 5.1 2.7 10.6 5.9 16.7 9.9 30.7 15.9 41.2 17.6 2.4.4 5.3 1 6.4 1.3 1.1.2 7.6.6 14.5.8 22.9.5 40.6-4.6 63.7-18.2 4-2.4 7.6-4.4 8-4.4.4 0 1.4-.6 2.2-1.4.9-.7 3.6-2.5 6.1-3.8 2.5-1.4 10.4-5.9 17.5-10 7.2-4.2 14.6-8.5 16.5-9.5 1.9-1.1 9.4-5.4 16.5-9.5 7.2-4.2 14.5-8.4 16.2-9.4 1.8-1.1 11.4-6.6 21.4-12.4 10-5.8 20.1-11.6 22.3-12.9 2.3-1.3 17.4-10 33.6-19.3 16.2-9.4 32.2-19 35.5-21.3 13.9-9.9 27.1-25.5 34.2-40.5 3.5-7.3 7.9-19.2 8.7-23.6.3-1.6.9-5.4 1.5-8.4 1.2-6.5 1-253.9-.2-258.4-.5-1.6-1.4-5.4-2.1-8.5-4.8-20.6-18.8-42.7-36.1-57.2-4.6-3.9-15.3-10.9-16.4-10.9-.6 0-1.1-.5-1.1-1 0-.6-.4-1-1-1-.5 0-5.5-2.7-11.1-6-5.5-3.3-10.2-6-10.4-6-.2 0-3.7-2-7.8-4.4-7.9-4.7-31.3-18.2-38.2-22.1-2.2-1.3-12.9-7.5-23.9-13.9-10.9-6.4-20.1-11.6-20.3-11.6-.3 0-1.7-.8-3.1-1.9-1.5-1-4.9-3.1-7.7-4.6-2.7-1.5-19.7-11.2-37.7-21.7C400.4 29 392.7 25 382 21.8c-14.1-4.2-33.5-5.8-47-3.8z"/></svg>