<svg xmlns="http://www.w3.org/2000/svg" width="1440" height="1024" fill="none" viewBox="0 0 1440 1024"><rect width="1440" height="1024" fill="#151515"/><path fill="#fff" d="M720.905 643.061H394.912C385.893 643.061 381.384 643.061 378.374 642.084C368.649 638.928 362.871 628.946 364.976 618.941C365.628 615.845 367.874 611.935 372.365 604.113L535.361 320.264C539.884 312.388 542.145 308.45 544.501 306.322C552.116 299.443 563.701 299.443 571.315 306.322C573.671 308.45 575.933 312.388 580.455 320.264L743.452 604.113C747.943 611.935 750.188 615.845 750.84 618.941C752.946 628.946 747.167 638.928 737.443 642.084C734.433 643.061 729.924 643.061 720.905 643.061Z"/><path fill="url(#paint0_linear)" d="M553.989 452.023C509.85 450.624 432.621 544.774 386.369 621.101C380.454 630.863 387.631 643.061 399.045 643.061H698.468C711.973 643.061 719.006 626.213 710.09 616.071C648.545 546.061 596.683 453.377 553.989 452.023Z"/><path fill="url(#paint1_linear)" d="M910.263 569.25C910.263 573.583 910.013 578.167 909.513 583H800.013C800.846 596.5 805.429 607.083 813.763 614.75C822.263 622.25 832.513 626 844.513 626C854.346 626 862.513 623.75 869.013 619.25C875.679 614.583 880.346 608.417 883.013 600.75H907.513C903.846 613.917 896.513 624.667 885.513 633C874.513 641.167 860.846 645.25 844.513 645.25C831.513 645.25 819.846 642.333 809.513 636.5C799.346 630.667 791.346 622.417 785.513 611.75C779.679 600.917 776.763 588.417 776.763 574.25C776.763 560.083 779.596 547.667 785.263 537C790.929 526.333 798.846 518.167 809.013 512.5C819.346 506.667 831.179 503.75 844.513 503.75C857.513 503.75 869.013 506.583 879.013 512.25C889.013 517.917 896.679 525.75 902.013 535.75C907.513 545.583 910.263 556.75 910.263 569.25ZM886.763 564.5C886.763 555.833 884.846 548.417 881.013 542.25C877.179 535.917 871.929 531.167 865.263 528C858.763 524.667 851.513 523 843.513 523C832.013 523 822.179 526.667 814.013 534C806.013 541.333 801.429 551.5 800.263 564.5H886.763ZM931.792 574C931.792 560 934.625 547.75 940.292 537.25C945.959 526.583 953.709 518.333 963.542 512.5C973.542 506.667 984.709 503.75 997.042 503.75C1008.88 503.75 1019.21 506.417 1028.04 511.75C1037.04 516.917 1043.63 523.333 1047.79 531V506H1070.79V708H1047.79V617.75C1043.46 625.417 1036.79 631.917 1027.79 637.25C1018.79 642.583 1008.29 645.25 996.292 645.25C984.292 645.25 973.375 642.25 963.542 636.25C953.709 630.25 945.959 621.833 940.292 611C934.625 600.167 931.792 587.833 931.792 574ZM1047.79 574.25C1047.79 563.917 1045.71 554.917 1041.54 547.25C1037.38 539.583 1031.71 533.75 1024.54 529.75C1017.54 525.583 1009.79 523.5 1001.29 523.5C992.792 523.5 985.042 525.5 978.042 529.5C971.042 533.5 965.459 539.333 961.292 547C957.125 554.667 955.042 563.667 955.042 574C955.042 584.5 957.125 593.667 961.292 601.5C965.459 609.167 971.042 615.083 978.042 619.25C985.042 623.25 992.792 625.25 1001.29 625.25C1009.79 625.25 1017.54 623.25 1024.54 619.25C1031.71 615.083 1037.38 609.167 1041.54 601.5C1045.71 593.667 1047.79 584.583 1047.79 574.25Z"/><defs><linearGradient id="paint0_linear" x1="555" x2="555" y1="452" y2="643" gradientUnits="userSpaceOnUse"><stop stop-color="#1D75C6"/><stop offset="1" stop-color="#9BBEDE"/></linearGradient><linearGradient id="paint1_linear" x1="928" x2="928" y1="368" y2="743" gradientUnits="userSpaceOnUse"><stop stop-color="#58B0FF"/><stop offset="1" stop-color="#D5D5D5"/></linearGradient></defs></svg>