<svg width="416" height="363" viewBox="0 0 416 363" fill="none" xmlns="http://www.w3.org/2000/svg">
    <path
        d="M370.905 362.061H44.9119C35.893 362.061 31.3836 362.061 28.374 361.084C18.6494 357.928 12.8707 347.946 14.9765 337.941C15.6282 334.845 17.8738 330.935 22.3649 323.113L185.361 39.2644C189.884 31.3882 192.145 27.4501 194.501 25.3218C202.116 18.4431 213.701 18.4431 221.315 25.3218C223.671 27.4501 225.933 31.3882 230.455 39.2644L393.452 323.113C397.943 330.935 400.188 334.845 400.84 337.941C402.946 347.946 397.167 357.928 387.443 361.084C384.433 362.061 379.924 362.061 370.905 362.061Z"
        fill="white" />
    <path
        d="M203.989 171.023C159.85 169.624 82.6211 263.774 36.3695 340.101C30.454 349.863 37.631 362.061 49.0455 362.061H348.469C361.973 362.061 369.006 345.213 360.09 335.071C298.545 265.061 246.683 172.377 203.989 171.023Z"
        fill="url(#paint0_linear)" />
    <defs>
        <linearGradient id="paint0_linear" x1="205" y1="171" x2="205" y2="362" gradientUnits="userSpaceOnUse">
            <stop stop-color="#1D75C6" />
            <stop offset="1" stop-color="#9BBEDE" />
        </linearGradient>
    </defs>
</svg>
