<svg xmlns="http://www.w3.org/2000/svg" width="16" height="16" viewBox="0 0 16 16"><path fill="#fff" d="M11.875 15.001c-0.059 0.031-0.056 0.044 0.003 0.014 0.018-0.008 0.034-0.018 0.047-0.031l-0 0c0-0.011-0.001-0.009-0.050 0.017zM11.994 14.939c-0.028 0.022-0.028 0.023 0.006 0.006 0.019-0.009 0.035-0.020 0.035-0.023 0-0.013-0.008-0.009-0.041 0.017zM12.072 14.891c-0.028 0.022-0.028 0.023 0.006 0.006 0.019-0.009 0.035-0.020 0.035-0.023 0-0.013-0.008-0.009-0.041 0.017zM12.15 14.845c-0.028 0.022-0.028 0.023 0.006 0.006 0.019-0.009 0.035-0.020 0.035-0.023 0-0.013-0.008-0.009-0.041 0.017zM12.258 14.775c-0.055 0.035-0.072 0.058-0.023 0.031 0.035-0.020 0.091-0.063 0.081-0.064-0.022 0.010-0.041 0.021-0.059 0.033l0.001-0.001zM7.476 0.004c-0.035 0.003-0.144 0.014-0.243 0.022-2.272 0.205-4.401 1.431-5.749 3.315-0.715 0.983-1.215 2.167-1.407 3.452l-0.005 0.043c-0.064 0.439-0.072 0.569-0.072 1.165s0.008 0.725 0.072 1.165c0.435 3.004 2.573 5.528 5.472 6.463 0.519 0.167 1.067 0.281 1.689 0.35 0.243 0.027 1.29 0.027 1.533 0 1.074-0.119 1.985-0.385 2.882-0.843 0.137-0.071 0.164-0.089 0.145-0.105-0.156-0.19-0.584-0.758-1.007-1.33l-0.295-0.417-1.279-1.728-1.603-2.372c-1.022-1.55-1.554-2.323-2.090-3.091l0.476 0.721c-0.006-0.001-0.013 1.053-0.015 2.339-0.005 2.253-0.006 2.344-0.035 2.397-0.028 0.063-0.076 0.112-0.136 0.141l-0.002 0.001c-0.050 0.025-0.094 0.030-0.33 0.030h-0.271l-0.072-0.045c-0.044-0.028-0.080-0.067-0.104-0.112l-0.001-0.002-0.033-0.071 0.003-3.135 0.005-3.137 0.049-0.061c0.032-0.038 0.071-0.070 0.114-0.094l0.002-0.001c0.064-0.031 0.089-0.035 0.36-0.035 0.319 0 0.372 0.013 0.455 0.103-0.055-0.143 0.581 0.805 1.212 1.756l0.718 1.152c1.039 1.575 2.458 3.725 3.156 4.781l1.267 1.919 0.064-0.042c0.624-0.419 1.164-0.895 1.635-1.433l0.008-0.009c0.973-1.109 1.646-2.505 1.877-4.046l0.005-0.044c0.064-0.439 0.072-0.569 0.072-1.165s-0.008-0.725-0.072-1.165c-0.435-3.004-2.573-5.528-5.472-6.463-0.481-0.16-1.046-0.282-1.628-0.345l-0.037-0.003c-0.15-0.015-1.184-0.033-1.315-0.022zM10.751 4.843c0.075 0.038 0.131 0.103 0.157 0.182l0.001 0.002c0.013 0.041 0.015 0.91 0.013 2.869l-0.005 2.812-0.496-0.76-0.497-0.76v-2.044c0-1.321 0.006-2.064 0.015-2.1 0.024-0.085 0.079-0.155 0.153-0.197l0.002-0.001c0.064-0.033 0.087-0.036 0.333-0.036 0.231 0 0.272 0.003 0.324 0.031z"/></svg>