<svg xmlns="http://www.w3.org/2000/svg" width="16" height="16" viewBox="0 0 16 16"><path fill="#fff" d="M9.54 0.12l0.6 0.133 0.487 0.173 0.393 0.2 0.3 0.213 0.227 0.227 0.167 0.227 0.107 0.22 0.067 0.2 0.027 0.173 0.013 0.133-0.007 0.087v3.56l-0.033 0.42-0.087 0.367-0.14 0.307-0.173 0.253-0.2 0.207-0.22 0.167-0.233 0.127-0.233 0.093-0.22 0.067-0.2 0.047-0.173 0.027-0.14 0.013h-3.98l-0.46 0.033-0.393 0.093-0.333 0.147-0.273 0.18-0.22 0.213-0.18 0.233-0.133 0.24-0.1 0.247-0.067 0.233-0.047 0.213-0.027 0.18-0.013 0.14v2.040h-1.487l-0.14-0.020-0.187-0.047-0.213-0.080-0.233-0.12-0.24-0.173-0.24-0.24-0.233-0.307-0.213-0.393-0.187-0.487-0.14-0.587-0.093-0.7-0.033-0.82 0.040-0.813 0.107-0.693 0.16-0.58 0.213-0.473 0.24-0.38 0.267-0.293 0.28-0.22 0.28-0.16 0.267-0.107 0.24-0.067 0.213-0.033 0.16-0.007h0.107l0.040 0.007h5.44v-0.553h-3.893l-0.007-1.833-0.013-0.247 0.033-0.227 0.073-0.207 0.113-0.187 0.167-0.173 0.207-0.153 0.253-0.133 0.293-0.12 0.34-0.1 0.387-0.080 0.427-0.067 0.473-0.040 0.513-0.027 0.56-0.013 0.847 0.033zM5.34 1.44l-0.153 0.22-0.053 0.273 0.053 0.273 0.153 0.227 0.22 0.147 0.273 0.060 0.273-0.060 0.22-0.147 0.153-0.227 0.053-0.273-0.053-0.273-0.153-0.22-0.22-0.147-0.273-0.060-0.273 0.060zM14.067 4.073l0.187 0.040 0.213 0.080 0.233 0.12 0.24 0.18 0.24 0.233 0.233 0.313 0.213 0.393 0.187 0.487 0.14 0.587 0.093 0.693 0.033 0.82-0.040 0.82-0.107 0.693-0.16 0.573-0.213 0.473-0.24 0.38-0.267 0.3-0.28 0.22-0.28 0.16-0.267 0.107-0.24 0.060-0.213 0.033-0.16 0.013-0.107-0.007h-5.48v0.547h3.893l0.007 1.84 0.013 0.24-0.033 0.227-0.073 0.207-0.113 0.193-0.167 0.167-0.207 0.16-0.253 0.133-0.293 0.113-0.34 0.1-0.387 0.087-0.427 0.060-0.473 0.047-0.513 0.027-0.56 0.007-0.847-0.027-0.713-0.093-0.6-0.133-0.487-0.167-0.393-0.2-0.3-0.22-0.227-0.227-0.167-0.227-0.107-0.22-0.067-0.2-0.027-0.167-0.013-0.133 0.007-0.087v-3.56l0.033-0.427 0.087-0.36 0.14-0.307 0.173-0.253 0.2-0.213 0.22-0.16 0.233-0.133 0.233-0.093 0.22-0.067 0.2-0.040 0.173-0.027 0.14-0.013 0.087-0.007h3.893l0.46-0.033 0.393-0.093 0.333-0.14 0.273-0.187 0.22-0.213 0.18-0.233 0.133-0.24 0.1-0.24 0.067-0.233 0.047-0.213 0.027-0.187 0.013-0.14v-2.040h1.393l0.093 0.007zM9.753 13.573l-0.153 0.22-0.053 0.273 0.053 0.273 0.153 0.22 0.22 0.153 0.273 0.053 0.273-0.053 0.22-0.153 0.153-0.22 0.053-0.273-0.053-0.273-0.153-0.22-0.22-0.153-0.273-0.053-0.273 0.053z"/></svg>