<svg xmlns="http://www.w3.org/2000/svg" width="16" height="16" viewBox="0 0 16 16"><path fill="#fff" d="M8 6.574c-0.788 0-1.426 0.638-1.426 1.426s0.638 1.426 1.426 1.426v0c0.788 0 1.426-0.638 1.426-1.426s-0.638-1.426-1.426-1.426v0zM4.005 10.837l-0.315-0.080c-2.345-0.593-3.691-1.599-3.691-2.759s1.345-2.167 3.691-2.759l0.315-0.079 0.089 0.312c0.272 0.93 0.581 1.721 0.95 2.478l-0.041-0.093 0.067 0.142-0.067 0.142c-0.328 0.665-0.637 1.456-0.881 2.275l-0.028 0.11zM3.545 5.967c-1.783 0.501-2.877 1.267-2.877 2.031s1.094 1.529 2.877 2.031c0.256-0.81 0.523-1.482 0.831-2.132l-0.043 0.101c-0.266-0.549-0.533-1.221-0.756-1.914l-0.032-0.117zM11.995 10.837l-0.089-0.313c-0.272-0.929-0.581-1.72-0.95-2.477l0.041 0.092-0.067-0.142 0.067-0.142c0.328-0.664 0.637-1.455 0.881-2.275l0.028-0.11 0.089-0.312 0.315 0.079c2.345 0.593 3.69 1.599 3.69 2.76s-1.345 2.167-3.69 2.759zM11.667 7.997c0.32 0.693 0.585 1.373 0.788 2.031 1.783-0.501 2.877-1.267 2.877-2.031s-1.094-1.529-2.877-2.031c-0.255 0.809-0.523 1.482-0.831 2.131l0.043-0.1zM3.54 5.963l-0.089-0.311c-0.659-2.324-0.459-3.989 0.549-4.571 0.989-0.571 2.576 0.103 4.239 1.811l0.227 0.233-0.227 0.233c-0.573 0.595-1.104 1.241-1.581 1.927l-0.034 0.051-0.090 0.129-0.157 0.013c-0.937 0.075-1.798 0.219-2.632 0.43l0.109-0.023zM4.804 1.543c-0.179 0-0.337 0.039-0.47 0.115-0.663 0.382-0.78 1.71-0.323 3.502 0.605-0.142 1.34-0.261 2.090-0.329l0.065-0.005c0.447-0.632 0.896-1.185 1.378-1.707l-0.010 0.011c-1.040-1.013-2.025-1.587-2.73-1.587zM11.197 15.118c-0.001 0-0.001 0 0 0-0.95 0-2.17-0.715-3.436-2.015l-0.227-0.233 0.227-0.233c0.573-0.595 1.103-1.241 1.58-1.927l0.034-0.052 0.090-0.129 0.156-0.013c0.938-0.075 1.799-0.219 2.633-0.429l-0.109 0.023 0.315-0.079 0.089 0.312c0.658 2.323 0.459 3.989-0.549 4.569-0.225 0.129-0.494 0.205-0.781 0.205-0.008 0-0.016-0-0.024-0l0.001 0zM8.466 12.864c1.040 1.013 2.025 1.587 2.73 1.587h0.001c0.178 0 0.337-0.039 0.469-0.115 0.663-0.382 0.781-1.711 0.323-3.503-0.606 0.143-1.341 0.261-2.091 0.329l-0.065 0.005c-0.446 0.632-0.895 1.186-1.377 1.708l0.010-0.011zM12.46 5.963l-0.315-0.079c-0.726-0.188-1.588-0.332-2.469-0.403l-0.055-0.004-0.156-0.013-0.090-0.129c-0.51-0.737-1.041-1.383-1.619-1.983l0.005 0.005-0.227-0.233 0.227-0.233c1.663-1.707 3.249-2.381 4.239-1.811 1.008 0.581 1.208 2.247 0.549 4.57zM9.833 4.827c0.761 0.069 1.485 0.182 2.156 0.334 0.457-1.792 0.339-3.12-0.323-3.502-0.659-0.381-1.897 0.203-3.2 1.472 0.472 0.511 0.92 1.064 1.333 1.645l0.035 0.051zM4.804 15.118c-0.007 0-0.015 0-0.023 0-0.287 0-0.556-0.076-0.789-0.21l0.008 0.004c-1.008-0.581-1.208-2.246-0.549-4.569l0.088-0.312 0.315 0.079c0.77 0.194 1.619 0.331 2.523 0.406l0.157 0.013 0.089 0.129c0.511 0.737 1.042 1.383 1.619 1.984l-0.005-0.005 0.227 0.233-0.227 0.233c-1.265 1.3-2.485 2.015-3.434 2.015zM4.011 10.833c-0.457 1.792-0.339 3.121 0.323 3.503 0.658 0.375 1.895-0.203 3.2-1.472-0.472-0.511-0.921-1.064-1.333-1.645l-0.035-0.051c-0.814-0.073-1.55-0.191-2.267-0.356l0.112 0.022zM8 11.252c-0.549 0-1.113-0.024-1.677-0.071l-0.157-0.013-0.090-0.129c-0.272-0.384-0.57-0.846-0.848-1.32l-0.052-0.095c-0.226-0.379-0.485-0.866-0.725-1.364l-0.053-0.121-0.067-0.142 0.067-0.142c0.292-0.619 0.551-1.106 0.829-1.581l-0.052 0.095c0.276-0.477 0.579-0.953 0.9-1.415l0.090-0.129 0.157-0.013c0.503-0.045 1.087-0.071 1.678-0.071s1.175 0.026 1.753 0.076l-0.075-0.005 0.156 0.013 0.089 0.129c0.588 0.833 1.147 1.784 1.626 2.78l0.052 0.12 0.067 0.142-0.067 0.142c-0.529 1.116-1.088 2.066-1.72 2.962l0.042-0.062-0.089 0.129-0.156 0.013c-0.565 0.047-1.129 0.071-1.678 0.071zM6.535 10.529c0.987 0.074 1.943 0.074 2.93 0 0.502-0.723 0.989-1.552 1.414-2.418l0.050-0.114c-0.473-0.979-0.961-1.809-1.506-2.595l0.041 0.063c-0.438-0.035-0.949-0.056-1.465-0.056s-1.026 0.020-1.532 0.060l0.067-0.004c-0.504 0.724-0.992 1.553-1.415 2.42l-0.050 0.112c0.475 0.98 0.963 1.809 1.507 2.597l-0.042-0.065z"/></svg>