<svg xmlns="http://www.w3.org/2000/svg" width="16" height="16" viewBox="0 0 16 16"><path fill="#fff" d="M8 0c4.418 0 8 3.582 8 8s-3.582 8-8 8-8-3.582-8-8 3.582-8 8-8zM6.41 10.665c0.117 0.43 0.104 0.832-0.016 1.195l-0.043 0.12c-0.016 0.041-0.035 0.080-0.052 0.117-0.093 0.193-0.217 0.373-0.37 0.54-0.465 0.506-1.115 0.698-1.393 0.537-0.3-0.175-0.151-0.89 0.389-1.46 0.581-0.612 1.413-1.006 1.413-1.006v-0.002zM13.017 3.425c-0.361-1.422-2.718-1.889-4.948-1.097-1.326 0.471-2.763 1.212-3.795 2.178-1.229 1.147-1.424 2.147-1.343 2.565 0.285 1.474 2.305 2.438 3.135 3.153v0.004c-0.245 0.12-2.037 1.019-2.457 1.95-0.45 0.98 0.070 1.681 0.41 1.77 1.050 0.291 2.13-0.24 2.71-1.099 0.56-0.841 0.511-1.921 0.269-2.451 0.331-0.090 0.72-0.13 1.22-0.069 1.401 0.16 1.681 1.040 1.62 1.4s-0.349 0.569-0.449 0.629c-0.1 0.061-0.13 0.080-0.121 0.121 0.010 0.060 0.061 0.060 0.14 0.050 0.11-0.020 0.731-0.3 0.761-0.981 0.030-0.86-0.791-1.819-2.25-1.8-0.6 0.011-0.981 0.061-1.25 0.171-0.020-0.030-0.041-0.050-0.070-0.070-0.9-0.97-2.57-1.65-2.5-2.94 0.020-0.47 0.19-1.709 3.2-3.209 2.47-1.231 4.441-0.89 4.781-0.14 0.489 1.069-1.051 3.060-3.621 3.349-0.98 0.11-1.49-0.269-1.621-0.41-0.139-0.15-0.159-0.16-0.209-0.129-0.080 0.040-0.030 0.17 0 0.25 0.080 0.2 0.39 0.55 0.931 0.73 0.469 0.15 1.62 0.239 3-0.3 1.549-0.599 2.759-2.27 2.409-3.67z"/></svg>