<svg xmlns="http://www.w3.org/2000/svg" width="16" height="16" viewBox="0 0 16 16">
    <path fill="white"
        d="M0 8v8h16v-16h-16zM12.894 7.363c0.407 0.101 0.716 0.282 1.001 0.577 0.147 0.157 0.366 0.444 0.383 0.513 0.005 0.020-0.691 0.487-1.112 0.749-0.015 0.010-0.077-0.056-0.145-0.157-0.207-0.3-0.422-0.429-0.752-0.452-0.485-0.033-0.797 0.221-0.795 0.645-0 0.007-0.001 0.016-0.001 0.025 0 0.101 0.025 0.195 0.070 0.278l-0.002-0.003c0.107 0.221 0.305 0.353 0.927 0.622 1.146 0.493 1.636 0.818 1.941 1.28 0.34 0.515 0.417 1.339 0.185 1.951-0.253 0.665-0.883 1.117-1.77 1.267-0.274 0.049-0.924 0.041-1.219-0.012-0.643-0.115-1.252-0.432-1.628-0.849-0.147-0.162-0.435-0.587-0.417-0.617 0.007-0.011 0.073-0.051 0.147-0.094 0.072-0.041 0.341-0.196 0.595-0.343l0.46-0.267 0.097 0.143c0.135 0.205 0.429 0.487 0.607 0.581 0.511 0.269 1.211 0.231 1.557-0.079 0.128-0.109 0.209-0.27 0.209-0.45 0-0.010-0-0.021-0.001-0.031l0 0.001c0-0.185-0.023-0.267-0.12-0.407-0.124-0.177-0.378-0.327-1.099-0.64-0.825-0.355-1.181-0.576-1.506-0.927-0.196-0.223-0.347-0.49-0.435-0.785l-0.004-0.015c-0.061-0.226-0.076-0.793-0.028-1.021 0.17-0.798 0.772-1.353 1.641-1.519 0.282-0.053 0.937-0.033 1.214 0.035zM9.138 8.031l0.005 0.655h-2.083v5.917h-1.473v-5.917h-2.081v-0.643c0-0.356 0.007-0.653 0.017-0.66 0.008-0.011 1.275-0.016 2.811-0.013l2.797 0.008z" />
    </svg>